G75*
%MOIN*%
%OFA0B0*%
%FSLAX25Y25*%
%IPPOS*%
%LPD*%
%AMOC8*
5,1,8,0,0,1.08239X$1,22.5*
%
%ADD10C,0.01000*%
%ADD11C,0.00500*%
%ADD12C,0.00800*%
%ADD13C,0.00100*%
%ADD14C,0.00600*%
%ADD15C,0.00000*%
%ADD16C,0.00472*%
%ADD17R,0.00250X0.00050*%
%ADD18R,0.00550X0.00050*%
%ADD19R,0.00800X0.00050*%
%ADD20R,0.01050X0.00050*%
%ADD21R,0.01250X0.00050*%
%ADD22R,0.01400X0.00050*%
%ADD23R,0.01600X0.00050*%
%ADD24R,0.01750X0.00050*%
%ADD25R,0.01850X0.00050*%
%ADD26R,0.02000X0.00050*%
%ADD27R,0.02100X0.00050*%
%ADD28R,0.02150X0.00050*%
%ADD29R,0.02300X0.00050*%
%ADD30R,0.02350X0.00050*%
%ADD31R,0.02400X0.00050*%
%ADD32R,0.00100X0.00050*%
%ADD33R,0.02500X0.00050*%
%ADD34R,0.02550X0.00050*%
%ADD35R,0.01900X0.00050*%
%ADD36R,0.02050X0.00050*%
%ADD37R,0.02600X0.00050*%
%ADD38R,0.02250X0.00050*%
%ADD39R,0.02650X0.00050*%
%ADD40R,0.02450X0.00050*%
%ADD41R,0.02700X0.00050*%
%ADD42R,0.02750X0.00050*%
%ADD43R,0.02800X0.00050*%
%ADD44R,0.01100X0.00050*%
%ADD45R,0.00900X0.00050*%
%ADD46R,0.01200X0.00050*%
%ADD47R,0.02950X0.00050*%
%ADD48R,0.00950X0.00050*%
%ADD49R,0.00700X0.00050*%
%ADD50R,0.00400X0.00050*%
%ADD51R,0.01000X0.00050*%
%ADD52R,0.00650X0.00050*%
%ADD53R,0.01150X0.00050*%
%ADD54R,0.00850X0.00050*%
%ADD55R,0.00600X0.00050*%
%ADD56R,0.02850X0.00050*%
%ADD57R,0.02900X0.00050*%
%ADD58R,0.00750X0.00050*%
%ADD59R,0.00500X0.00050*%
%ADD60R,0.01700X0.00050*%
%ADD61R,0.00200X0.00050*%
%ADD62R,0.00450X0.00050*%
%ADD63R,0.01500X0.00050*%
%ADD64R,0.01350X0.00050*%
%ADD65R,0.01550X0.00050*%
%ADD66R,0.01800X0.00050*%
%ADD67R,0.02200X0.00050*%
%ADD68R,0.03200X0.00050*%
%ADD69R,0.03500X0.00050*%
%ADD70R,0.01300X0.00050*%
%ADD71R,0.03750X0.00050*%
%ADD72R,0.04050X0.00050*%
%ADD73R,0.01450X0.00050*%
%ADD74R,0.04300X0.00050*%
%ADD75R,0.04600X0.00050*%
%ADD76R,0.04900X0.00050*%
%ADD77R,0.01650X0.00050*%
%ADD78R,0.05250X0.00050*%
%ADD79R,0.05550X0.00050*%
%ADD80R,0.05900X0.00050*%
%ADD81R,0.00350X0.00050*%
%ADD82R,0.06250X0.00050*%
%ADD83R,0.06650X0.00050*%
%ADD84R,0.00300X0.00050*%
%ADD85R,0.07050X0.00050*%
%ADD86R,0.07500X0.00050*%
%ADD87R,0.08000X0.00050*%
%ADD88R,0.00150X0.00050*%
%ADD89R,0.08650X0.00050*%
%ADD90R,0.09550X0.00050*%
%ADD91R,0.09750X0.00050*%
%ADD92R,0.09900X0.00050*%
%ADD93R,0.10100X0.00050*%
%ADD94R,0.10250X0.00050*%
%ADD95R,0.10450X0.00050*%
%ADD96R,0.10650X0.00050*%
%ADD97R,0.10850X0.00050*%
%ADD98R,0.11000X0.00050*%
%ADD99R,0.11200X0.00050*%
%ADD100R,0.11350X0.00050*%
%ADD101R,0.11450X0.00050*%
%ADD102R,0.03700X0.00050*%
%ADD103R,0.03650X0.00050*%
%ADD104R,0.03600X0.00050*%
%ADD105R,0.09700X0.00050*%
%ADD106R,0.03100X0.00050*%
%ADD107R,0.03050X0.00050*%
%ADD108R,0.03300X0.00050*%
%ADD109R,0.01950X0.00050*%
%ADD110R,0.06600X0.00050*%
D10*
X0001500Y0001500D02*
X0001500Y0101500D01*
X0156500Y0101461D01*
X0156500Y0001500D01*
X0001500Y0001500D01*
D11*
X0004116Y0010791D02*
X0004184Y0046295D01*
X0004177Y0046323D02*
X0061657Y0046323D01*
X0061657Y0010890D01*
X0004177Y0010890D01*
X0101815Y0016815D02*
X0101815Y0056185D01*
X0141185Y0056185D01*
X0141185Y0016815D01*
X0101815Y0016815D01*
X0072510Y0081045D02*
X0072510Y0086683D01*
X0073214Y0085978D02*
X0071805Y0085978D01*
X0071100Y0085273D01*
X0071100Y0084569D01*
X0071805Y0083864D01*
X0073214Y0083864D01*
X0073919Y0083159D01*
X0073919Y0082455D01*
X0073214Y0081750D01*
X0071805Y0081750D01*
X0071100Y0082455D01*
X0069569Y0082455D02*
X0069569Y0085978D01*
X0066750Y0085978D02*
X0066750Y0082455D01*
X0067455Y0081750D01*
X0068864Y0081750D01*
X0069569Y0082455D01*
X0073214Y0085978D02*
X0073919Y0085273D01*
X0075450Y0084569D02*
X0076860Y0085978D01*
X0076860Y0081750D01*
X0078269Y0081750D02*
X0075450Y0081750D01*
X0046064Y0083850D02*
X0043062Y0083850D01*
X0044563Y0083850D02*
X0044563Y0088354D01*
X0043062Y0086853D01*
X0041460Y0087603D02*
X0040710Y0088354D01*
X0038458Y0088354D01*
X0038458Y0083850D01*
X0040710Y0083850D01*
X0041460Y0084601D01*
X0041460Y0087603D01*
X0036856Y0088354D02*
X0033854Y0088354D01*
X0033854Y0083850D01*
X0036856Y0083850D01*
X0035355Y0086102D02*
X0033854Y0086102D01*
X0032253Y0083850D02*
X0029250Y0083850D01*
X0029250Y0088354D01*
D12*
X0026500Y0089000D02*
X0026500Y0074000D01*
D13*
X0026829Y0089309D02*
X0026109Y0088769D01*
X0026110Y0088770D02*
X0025929Y0089003D01*
X0025743Y0089231D01*
X0025551Y0089455D01*
X0025354Y0089674D01*
X0025152Y0089888D01*
X0024944Y0090097D01*
X0024731Y0090300D01*
X0024514Y0090499D01*
X0024291Y0090692D01*
X0024064Y0090880D01*
X0023833Y0091062D01*
X0023597Y0091239D01*
X0023356Y0091409D01*
X0023112Y0091574D01*
X0022864Y0091732D01*
X0022612Y0091885D01*
X0022356Y0092031D01*
X0022097Y0092171D01*
X0021834Y0092305D01*
X0021569Y0092432D01*
X0021300Y0092553D01*
X0021028Y0092667D01*
X0020754Y0092774D01*
X0020477Y0092875D01*
X0020198Y0092969D01*
X0019916Y0093056D01*
X0019633Y0093136D01*
X0019347Y0093209D01*
X0019060Y0093275D01*
X0018771Y0093334D01*
X0018481Y0093386D01*
X0018190Y0093431D01*
X0017898Y0093469D01*
X0017605Y0093499D01*
X0017311Y0093523D01*
X0017017Y0093539D01*
X0016723Y0093548D01*
X0016428Y0093550D01*
X0016133Y0093544D01*
X0015839Y0093532D01*
X0015545Y0093512D01*
X0015252Y0093485D01*
X0014959Y0093451D01*
X0014667Y0093410D01*
X0014377Y0093361D01*
X0014087Y0093306D01*
X0013800Y0093244D01*
X0013513Y0093174D01*
X0013229Y0093097D01*
X0012946Y0093014D01*
X0012666Y0092924D01*
X0012388Y0092827D01*
X0012112Y0092723D01*
X0011839Y0092612D01*
X0011569Y0092495D01*
X0011301Y0092371D01*
X0011037Y0092241D01*
X0010776Y0092104D01*
X0010519Y0091961D01*
X0010265Y0091811D01*
X0010014Y0091656D01*
X0009768Y0091494D01*
X0009526Y0091327D01*
X0009288Y0091153D01*
X0009054Y0090974D01*
X0008824Y0090789D01*
X0008600Y0090599D01*
X0008379Y0090403D01*
X0008164Y0090202D01*
X0007954Y0089995D01*
X0007749Y0089784D01*
X0007549Y0089567D01*
X0007354Y0089346D01*
X0007165Y0089120D01*
X0006982Y0088890D01*
X0006804Y0088655D01*
X0006632Y0088415D01*
X0006466Y0088172D01*
X0006306Y0087925D01*
X0006152Y0087674D01*
X0006004Y0087419D01*
X0005862Y0087160D01*
X0005727Y0086899D01*
X0005598Y0086634D01*
X0005476Y0086366D01*
X0005360Y0086095D01*
X0005251Y0085821D01*
X0005149Y0085545D01*
X0005054Y0085266D01*
X0004965Y0084985D01*
X0004883Y0084702D01*
X0004808Y0084417D01*
X0004741Y0084130D01*
X0004680Y0083842D01*
X0004626Y0083552D01*
X0004579Y0083261D01*
X0004540Y0082969D01*
X0004508Y0082677D01*
X0004482Y0082383D01*
X0004464Y0082089D01*
X0004454Y0081795D01*
X0004450Y0081500D01*
X0004454Y0081205D01*
X0004464Y0080911D01*
X0004482Y0080617D01*
X0004508Y0080323D01*
X0004540Y0080031D01*
X0004579Y0079739D01*
X0004626Y0079448D01*
X0004680Y0079158D01*
X0004741Y0078870D01*
X0004808Y0078583D01*
X0004883Y0078298D01*
X0004965Y0078015D01*
X0005054Y0077734D01*
X0005149Y0077455D01*
X0005251Y0077179D01*
X0005360Y0076905D01*
X0005476Y0076634D01*
X0005598Y0076366D01*
X0005727Y0076101D01*
X0005862Y0075840D01*
X0006004Y0075581D01*
X0006152Y0075326D01*
X0006306Y0075075D01*
X0006466Y0074828D01*
X0006632Y0074585D01*
X0006804Y0074345D01*
X0006982Y0074110D01*
X0007165Y0073880D01*
X0007354Y0073654D01*
X0007549Y0073433D01*
X0007749Y0073216D01*
X0007954Y0073005D01*
X0008164Y0072798D01*
X0008379Y0072597D01*
X0008600Y0072401D01*
X0008824Y0072211D01*
X0009054Y0072026D01*
X0009288Y0071847D01*
X0009526Y0071673D01*
X0009768Y0071506D01*
X0010014Y0071344D01*
X0010265Y0071189D01*
X0010519Y0071039D01*
X0010776Y0070896D01*
X0011037Y0070759D01*
X0011301Y0070629D01*
X0011569Y0070505D01*
X0011839Y0070388D01*
X0012112Y0070277D01*
X0012388Y0070173D01*
X0012666Y0070076D01*
X0012946Y0069986D01*
X0013229Y0069903D01*
X0013513Y0069826D01*
X0013800Y0069756D01*
X0014087Y0069694D01*
X0014377Y0069639D01*
X0014667Y0069590D01*
X0014959Y0069549D01*
X0015252Y0069515D01*
X0015545Y0069488D01*
X0015839Y0069468D01*
X0016133Y0069456D01*
X0016428Y0069450D01*
X0016723Y0069452D01*
X0017017Y0069461D01*
X0017311Y0069477D01*
X0017605Y0069501D01*
X0017898Y0069531D01*
X0018190Y0069569D01*
X0018481Y0069614D01*
X0018771Y0069666D01*
X0019060Y0069725D01*
X0019347Y0069791D01*
X0019633Y0069864D01*
X0019916Y0069944D01*
X0020198Y0070031D01*
X0020477Y0070125D01*
X0020754Y0070226D01*
X0021028Y0070333D01*
X0021300Y0070447D01*
X0021569Y0070568D01*
X0021834Y0070695D01*
X0022097Y0070829D01*
X0022356Y0070969D01*
X0022612Y0071115D01*
X0022864Y0071268D01*
X0023112Y0071426D01*
X0023356Y0071591D01*
X0023597Y0071761D01*
X0023833Y0071938D01*
X0024064Y0072120D01*
X0024291Y0072308D01*
X0024514Y0072501D01*
X0024731Y0072700D01*
X0024944Y0072903D01*
X0025152Y0073112D01*
X0025354Y0073326D01*
X0025551Y0073545D01*
X0025743Y0073769D01*
X0025929Y0073997D01*
X0026110Y0074230D01*
X0026829Y0073691D01*
X0026830Y0073690D01*
X0026636Y0073440D01*
X0026436Y0073194D01*
X0026230Y0072954D01*
X0026018Y0072719D01*
X0025800Y0072489D01*
X0025577Y0072264D01*
X0025349Y0072045D01*
X0025115Y0071831D01*
X0024876Y0071623D01*
X0024632Y0071421D01*
X0024383Y0071226D01*
X0024129Y0071036D01*
X0023871Y0070853D01*
X0023609Y0070676D01*
X0023342Y0070505D01*
X0023071Y0070341D01*
X0022796Y0070184D01*
X0022518Y0070033D01*
X0022235Y0069889D01*
X0021950Y0069753D01*
X0021661Y0069623D01*
X0021369Y0069500D01*
X0021074Y0069385D01*
X0020777Y0069277D01*
X0020476Y0069176D01*
X0020174Y0069082D01*
X0019869Y0068996D01*
X0019562Y0068917D01*
X0019254Y0068846D01*
X0018944Y0068783D01*
X0018632Y0068727D01*
X0018319Y0068678D01*
X0018005Y0068638D01*
X0017690Y0068605D01*
X0017374Y0068580D01*
X0017058Y0068562D01*
X0016742Y0068552D01*
X0016425Y0068550D01*
X0016108Y0068556D01*
X0015792Y0068569D01*
X0015476Y0068591D01*
X0015161Y0068619D01*
X0014846Y0068656D01*
X0014533Y0068700D01*
X0014220Y0068752D01*
X0013909Y0068812D01*
X0013600Y0068879D01*
X0013292Y0068954D01*
X0012986Y0069036D01*
X0012683Y0069125D01*
X0012381Y0069222D01*
X0012082Y0069327D01*
X0011786Y0069439D01*
X0011492Y0069557D01*
X0011202Y0069683D01*
X0010915Y0069816D01*
X0010630Y0069957D01*
X0010350Y0070104D01*
X0010073Y0070257D01*
X0009800Y0070418D01*
X0009531Y0070585D01*
X0009266Y0070759D01*
X0009006Y0070939D01*
X0008750Y0071125D01*
X0008499Y0071318D01*
X0008252Y0071516D01*
X0008010Y0071721D01*
X0007774Y0071931D01*
X0007542Y0072148D01*
X0007317Y0072370D01*
X0007096Y0072597D01*
X0006881Y0072829D01*
X0006672Y0073067D01*
X0006469Y0073310D01*
X0006271Y0073558D01*
X0006080Y0073810D01*
X0005895Y0074067D01*
X0005717Y0074329D01*
X0005545Y0074595D01*
X0005379Y0074864D01*
X0005220Y0075138D01*
X0005068Y0075416D01*
X0004923Y0075697D01*
X0004784Y0075982D01*
X0004653Y0076270D01*
X0004529Y0076562D01*
X0004411Y0076856D01*
X0004301Y0077153D01*
X0004199Y0077452D01*
X0004104Y0077754D01*
X0004016Y0078058D01*
X0003935Y0078365D01*
X0003862Y0078673D01*
X0003797Y0078983D01*
X0003739Y0079294D01*
X0003689Y0079607D01*
X0003647Y0079921D01*
X0003612Y0080235D01*
X0003585Y0080551D01*
X0003565Y0080867D01*
X0003554Y0081183D01*
X0003550Y0081500D01*
X0003554Y0081817D01*
X0003565Y0082133D01*
X0003585Y0082449D01*
X0003612Y0082765D01*
X0003647Y0083079D01*
X0003689Y0083393D01*
X0003739Y0083706D01*
X0003797Y0084017D01*
X0003862Y0084327D01*
X0003935Y0084635D01*
X0004016Y0084942D01*
X0004104Y0085246D01*
X0004199Y0085548D01*
X0004301Y0085847D01*
X0004411Y0086144D01*
X0004529Y0086438D01*
X0004653Y0086730D01*
X0004784Y0087018D01*
X0004923Y0087303D01*
X0005068Y0087584D01*
X0005220Y0087862D01*
X0005379Y0088136D01*
X0005545Y0088405D01*
X0005717Y0088671D01*
X0005895Y0088933D01*
X0006080Y0089190D01*
X0006271Y0089442D01*
X0006469Y0089690D01*
X0006672Y0089933D01*
X0006881Y0090171D01*
X0007096Y0090403D01*
X0007317Y0090630D01*
X0007542Y0090852D01*
X0007774Y0091069D01*
X0008010Y0091279D01*
X0008252Y0091484D01*
X0008499Y0091682D01*
X0008750Y0091875D01*
X0009006Y0092061D01*
X0009266Y0092241D01*
X0009531Y0092415D01*
X0009800Y0092582D01*
X0010073Y0092743D01*
X0010350Y0092896D01*
X0010630Y0093043D01*
X0010915Y0093184D01*
X0011202Y0093317D01*
X0011492Y0093443D01*
X0011786Y0093561D01*
X0012082Y0093673D01*
X0012381Y0093778D01*
X0012683Y0093875D01*
X0012986Y0093964D01*
X0013292Y0094046D01*
X0013600Y0094121D01*
X0013909Y0094188D01*
X0014220Y0094248D01*
X0014533Y0094300D01*
X0014846Y0094344D01*
X0015161Y0094381D01*
X0015476Y0094409D01*
X0015792Y0094431D01*
X0016108Y0094444D01*
X0016425Y0094450D01*
X0016742Y0094448D01*
X0017058Y0094438D01*
X0017374Y0094420D01*
X0017690Y0094395D01*
X0018005Y0094362D01*
X0018319Y0094322D01*
X0018632Y0094273D01*
X0018944Y0094217D01*
X0019254Y0094154D01*
X0019562Y0094083D01*
X0019869Y0094004D01*
X0020174Y0093918D01*
X0020476Y0093824D01*
X0020777Y0093723D01*
X0021074Y0093615D01*
X0021369Y0093500D01*
X0021661Y0093377D01*
X0021950Y0093247D01*
X0022235Y0093111D01*
X0022518Y0092967D01*
X0022796Y0092816D01*
X0023071Y0092659D01*
X0023342Y0092495D01*
X0023609Y0092324D01*
X0023871Y0092147D01*
X0024129Y0091964D01*
X0024383Y0091774D01*
X0024632Y0091579D01*
X0024876Y0091377D01*
X0025115Y0091169D01*
X0025349Y0090955D01*
X0025577Y0090736D01*
X0025800Y0090511D01*
X0026018Y0090281D01*
X0026230Y0090046D01*
X0026436Y0089806D01*
X0026636Y0089560D01*
X0026830Y0089310D01*
X0026755Y0089254D01*
X0026562Y0089502D01*
X0026363Y0089746D01*
X0026159Y0089984D01*
X0025949Y0090218D01*
X0025733Y0090446D01*
X0025511Y0090669D01*
X0025284Y0090887D01*
X0025052Y0091099D01*
X0024815Y0091305D01*
X0024573Y0091506D01*
X0024325Y0091700D01*
X0024074Y0091888D01*
X0023817Y0092070D01*
X0023557Y0092246D01*
X0023292Y0092415D01*
X0023023Y0092578D01*
X0022750Y0092734D01*
X0022474Y0092884D01*
X0022194Y0093026D01*
X0021910Y0093162D01*
X0021623Y0093291D01*
X0021333Y0093413D01*
X0021041Y0093527D01*
X0020745Y0093635D01*
X0020447Y0093735D01*
X0020147Y0093828D01*
X0019844Y0093913D01*
X0019540Y0093991D01*
X0019234Y0094062D01*
X0018926Y0094125D01*
X0018616Y0094181D01*
X0018306Y0094229D01*
X0017994Y0094269D01*
X0017681Y0094302D01*
X0017368Y0094327D01*
X0017054Y0094344D01*
X0016740Y0094354D01*
X0016425Y0094356D01*
X0016111Y0094350D01*
X0015797Y0094337D01*
X0015483Y0094316D01*
X0015170Y0094287D01*
X0014858Y0094251D01*
X0014547Y0094207D01*
X0014237Y0094155D01*
X0013928Y0094096D01*
X0013621Y0094029D01*
X0013315Y0093955D01*
X0013012Y0093874D01*
X0012710Y0093785D01*
X0012411Y0093688D01*
X0012114Y0093585D01*
X0011820Y0093474D01*
X0011529Y0093356D01*
X0011240Y0093231D01*
X0010955Y0093099D01*
X0010673Y0092960D01*
X0010395Y0092814D01*
X0010120Y0092661D01*
X0009849Y0092502D01*
X0009582Y0092336D01*
X0009319Y0092163D01*
X0009060Y0091985D01*
X0008806Y0091800D01*
X0008557Y0091608D01*
X0008312Y0091411D01*
X0008072Y0091208D01*
X0007837Y0090999D01*
X0007607Y0090784D01*
X0007383Y0090564D01*
X0007164Y0090339D01*
X0006951Y0090108D01*
X0006743Y0089872D01*
X0006541Y0089630D01*
X0006346Y0089385D01*
X0006156Y0089134D01*
X0005972Y0088879D01*
X0005795Y0088619D01*
X0005624Y0088355D01*
X0005460Y0088087D01*
X0005302Y0087815D01*
X0005151Y0087540D01*
X0005007Y0087260D01*
X0004869Y0086978D01*
X0004739Y0086692D01*
X0004615Y0086403D01*
X0004499Y0086110D01*
X0004390Y0085816D01*
X0004288Y0085518D01*
X0004194Y0085219D01*
X0004106Y0084916D01*
X0004026Y0084612D01*
X0003954Y0084307D01*
X0003889Y0083999D01*
X0003832Y0083690D01*
X0003782Y0083379D01*
X0003740Y0083068D01*
X0003705Y0082755D01*
X0003679Y0082442D01*
X0003659Y0082128D01*
X0003648Y0081814D01*
X0003644Y0081500D01*
X0003648Y0081186D01*
X0003659Y0080872D01*
X0003679Y0080558D01*
X0003705Y0080245D01*
X0003740Y0079932D01*
X0003782Y0079621D01*
X0003832Y0079310D01*
X0003889Y0079001D01*
X0003954Y0078693D01*
X0004026Y0078388D01*
X0004106Y0078084D01*
X0004194Y0077781D01*
X0004288Y0077482D01*
X0004390Y0077184D01*
X0004499Y0076890D01*
X0004615Y0076597D01*
X0004739Y0076308D01*
X0004869Y0076022D01*
X0005007Y0075740D01*
X0005151Y0075460D01*
X0005302Y0075185D01*
X0005460Y0074913D01*
X0005624Y0074645D01*
X0005795Y0074381D01*
X0005972Y0074121D01*
X0006156Y0073866D01*
X0006346Y0073615D01*
X0006541Y0073370D01*
X0006743Y0073128D01*
X0006951Y0072892D01*
X0007164Y0072661D01*
X0007383Y0072436D01*
X0007607Y0072216D01*
X0007837Y0072001D01*
X0008072Y0071792D01*
X0008312Y0071589D01*
X0008557Y0071392D01*
X0008806Y0071200D01*
X0009060Y0071015D01*
X0009319Y0070837D01*
X0009582Y0070664D01*
X0009849Y0070498D01*
X0010120Y0070339D01*
X0010395Y0070186D01*
X0010673Y0070040D01*
X0010955Y0069901D01*
X0011240Y0069769D01*
X0011529Y0069644D01*
X0011820Y0069526D01*
X0012114Y0069415D01*
X0012411Y0069312D01*
X0012710Y0069215D01*
X0013012Y0069126D01*
X0013315Y0069045D01*
X0013621Y0068971D01*
X0013928Y0068904D01*
X0014237Y0068845D01*
X0014547Y0068793D01*
X0014858Y0068749D01*
X0015170Y0068713D01*
X0015483Y0068684D01*
X0015797Y0068663D01*
X0016111Y0068650D01*
X0016425Y0068644D01*
X0016740Y0068646D01*
X0017054Y0068656D01*
X0017368Y0068673D01*
X0017681Y0068698D01*
X0017994Y0068731D01*
X0018306Y0068771D01*
X0018616Y0068819D01*
X0018926Y0068875D01*
X0019234Y0068938D01*
X0019540Y0069009D01*
X0019844Y0069087D01*
X0020147Y0069172D01*
X0020447Y0069265D01*
X0020745Y0069365D01*
X0021041Y0069473D01*
X0021333Y0069587D01*
X0021623Y0069709D01*
X0021910Y0069838D01*
X0022194Y0069974D01*
X0022474Y0070116D01*
X0022750Y0070266D01*
X0023023Y0070422D01*
X0023292Y0070585D01*
X0023557Y0070754D01*
X0023817Y0070930D01*
X0024074Y0071112D01*
X0024325Y0071300D01*
X0024573Y0071494D01*
X0024815Y0071695D01*
X0025052Y0071901D01*
X0025284Y0072113D01*
X0025511Y0072331D01*
X0025733Y0072554D01*
X0025949Y0072782D01*
X0026159Y0073016D01*
X0026363Y0073254D01*
X0026562Y0073498D01*
X0026755Y0073746D01*
X0026680Y0073803D01*
X0026488Y0073556D01*
X0026291Y0073314D01*
X0026088Y0073077D01*
X0025879Y0072846D01*
X0025665Y0072619D01*
X0025445Y0072397D01*
X0025220Y0072181D01*
X0024989Y0071971D01*
X0024754Y0071766D01*
X0024513Y0071567D01*
X0024268Y0071374D01*
X0024018Y0071188D01*
X0023764Y0071007D01*
X0023505Y0070832D01*
X0023242Y0070664D01*
X0022975Y0070503D01*
X0022704Y0070348D01*
X0022430Y0070199D01*
X0022152Y0070058D01*
X0021870Y0069923D01*
X0021586Y0069795D01*
X0021298Y0069674D01*
X0021007Y0069560D01*
X0020714Y0069454D01*
X0020418Y0069354D01*
X0020120Y0069262D01*
X0019820Y0069177D01*
X0019517Y0069100D01*
X0019213Y0069030D01*
X0018908Y0068967D01*
X0018601Y0068912D01*
X0018292Y0068864D01*
X0017983Y0068824D01*
X0017672Y0068792D01*
X0017361Y0068767D01*
X0017050Y0068750D01*
X0016738Y0068740D01*
X0016426Y0068738D01*
X0016114Y0068744D01*
X0015802Y0068757D01*
X0015491Y0068778D01*
X0015180Y0068806D01*
X0014870Y0068843D01*
X0014561Y0068886D01*
X0014253Y0068937D01*
X0013946Y0068996D01*
X0013642Y0069062D01*
X0013338Y0069136D01*
X0013037Y0069217D01*
X0012738Y0069305D01*
X0012441Y0069401D01*
X0012146Y0069504D01*
X0011854Y0069614D01*
X0011565Y0069731D01*
X0011278Y0069855D01*
X0010995Y0069986D01*
X0010715Y0070124D01*
X0010439Y0070269D01*
X0010166Y0070421D01*
X0009897Y0070579D01*
X0009632Y0070744D01*
X0009371Y0070915D01*
X0009115Y0071092D01*
X0008862Y0071276D01*
X0008615Y0071466D01*
X0008372Y0071661D01*
X0008133Y0071863D01*
X0007900Y0072071D01*
X0007672Y0072284D01*
X0007450Y0072502D01*
X0007232Y0072726D01*
X0007021Y0072955D01*
X0006815Y0073190D01*
X0006614Y0073429D01*
X0006420Y0073673D01*
X0006232Y0073922D01*
X0006049Y0074175D01*
X0005873Y0074433D01*
X0005704Y0074695D01*
X0005541Y0074961D01*
X0005384Y0075231D01*
X0005234Y0075505D01*
X0005091Y0075782D01*
X0004954Y0076062D01*
X0004825Y0076346D01*
X0004702Y0076633D01*
X0004587Y0076923D01*
X0004479Y0077216D01*
X0004377Y0077511D01*
X0004283Y0077809D01*
X0004197Y0078109D01*
X0004118Y0078410D01*
X0004046Y0078714D01*
X0003981Y0079019D01*
X0003924Y0079326D01*
X0003875Y0079634D01*
X0003833Y0079944D01*
X0003799Y0080254D01*
X0003772Y0080565D01*
X0003753Y0080876D01*
X0003742Y0081188D01*
X0003738Y0081500D01*
X0003742Y0081812D01*
X0003753Y0082124D01*
X0003772Y0082435D01*
X0003799Y0082746D01*
X0003833Y0083056D01*
X0003875Y0083366D01*
X0003924Y0083674D01*
X0003981Y0083981D01*
X0004046Y0084286D01*
X0004118Y0084590D01*
X0004197Y0084891D01*
X0004283Y0085191D01*
X0004377Y0085489D01*
X0004479Y0085784D01*
X0004587Y0086077D01*
X0004702Y0086367D01*
X0004825Y0086654D01*
X0004954Y0086938D01*
X0005091Y0087218D01*
X0005234Y0087495D01*
X0005384Y0087769D01*
X0005541Y0088039D01*
X0005704Y0088305D01*
X0005873Y0088567D01*
X0006049Y0088825D01*
X0006232Y0089078D01*
X0006420Y0089327D01*
X0006614Y0089571D01*
X0006815Y0089810D01*
X0007021Y0090045D01*
X0007232Y0090274D01*
X0007450Y0090498D01*
X0007672Y0090716D01*
X0007900Y0090929D01*
X0008133Y0091137D01*
X0008372Y0091339D01*
X0008615Y0091534D01*
X0008862Y0091724D01*
X0009115Y0091908D01*
X0009371Y0092085D01*
X0009632Y0092256D01*
X0009897Y0092421D01*
X0010166Y0092579D01*
X0010439Y0092731D01*
X0010715Y0092876D01*
X0010995Y0093014D01*
X0011278Y0093145D01*
X0011565Y0093269D01*
X0011854Y0093386D01*
X0012146Y0093496D01*
X0012441Y0093599D01*
X0012738Y0093695D01*
X0013037Y0093783D01*
X0013338Y0093864D01*
X0013642Y0093938D01*
X0013946Y0094004D01*
X0014253Y0094063D01*
X0014561Y0094114D01*
X0014870Y0094157D01*
X0015180Y0094194D01*
X0015491Y0094222D01*
X0015802Y0094243D01*
X0016114Y0094256D01*
X0016426Y0094262D01*
X0016738Y0094260D01*
X0017050Y0094250D01*
X0017361Y0094233D01*
X0017672Y0094208D01*
X0017983Y0094176D01*
X0018292Y0094136D01*
X0018601Y0094088D01*
X0018908Y0094033D01*
X0019213Y0093970D01*
X0019517Y0093900D01*
X0019820Y0093823D01*
X0020120Y0093738D01*
X0020418Y0093646D01*
X0020714Y0093546D01*
X0021007Y0093440D01*
X0021298Y0093326D01*
X0021586Y0093205D01*
X0021870Y0093077D01*
X0022152Y0092942D01*
X0022430Y0092801D01*
X0022704Y0092652D01*
X0022975Y0092497D01*
X0023242Y0092336D01*
X0023505Y0092168D01*
X0023764Y0091993D01*
X0024018Y0091812D01*
X0024268Y0091626D01*
X0024513Y0091433D01*
X0024754Y0091234D01*
X0024989Y0091029D01*
X0025220Y0090819D01*
X0025445Y0090603D01*
X0025665Y0090381D01*
X0025879Y0090154D01*
X0026088Y0089923D01*
X0026291Y0089686D01*
X0026488Y0089444D01*
X0026680Y0089197D01*
X0026604Y0089141D01*
X0026414Y0089386D01*
X0026219Y0089626D01*
X0026017Y0089861D01*
X0025810Y0090091D01*
X0025597Y0090316D01*
X0025379Y0090536D01*
X0025155Y0090750D01*
X0024926Y0090959D01*
X0024693Y0091162D01*
X0024454Y0091360D01*
X0024211Y0091551D01*
X0023962Y0091737D01*
X0023710Y0091916D01*
X0023453Y0092089D01*
X0023192Y0092256D01*
X0022927Y0092417D01*
X0022658Y0092570D01*
X0022386Y0092718D01*
X0022110Y0092858D01*
X0021830Y0092992D01*
X0021548Y0093119D01*
X0021262Y0093239D01*
X0020974Y0093352D01*
X0020683Y0093458D01*
X0020389Y0093556D01*
X0020093Y0093648D01*
X0019795Y0093732D01*
X0019495Y0093809D01*
X0019193Y0093878D01*
X0018890Y0093941D01*
X0018585Y0093995D01*
X0018279Y0094043D01*
X0017971Y0094082D01*
X0017663Y0094114D01*
X0017355Y0094139D01*
X0017045Y0094156D01*
X0016736Y0094166D01*
X0016426Y0094168D01*
X0016116Y0094162D01*
X0015807Y0094149D01*
X0015498Y0094128D01*
X0015189Y0094100D01*
X0014882Y0094064D01*
X0014575Y0094021D01*
X0014269Y0093970D01*
X0013965Y0093912D01*
X0013662Y0093846D01*
X0013361Y0093773D01*
X0013062Y0093693D01*
X0012765Y0093605D01*
X0012470Y0093510D01*
X0012178Y0093408D01*
X0011888Y0093299D01*
X0011601Y0093182D01*
X0011317Y0093059D01*
X0011036Y0092929D01*
X0010758Y0092792D01*
X0010484Y0092648D01*
X0010213Y0092498D01*
X0009946Y0092341D01*
X0009683Y0092177D01*
X0009424Y0092007D01*
X0009169Y0091831D01*
X0008918Y0091649D01*
X0008673Y0091460D01*
X0008431Y0091266D01*
X0008195Y0091066D01*
X0007964Y0090860D01*
X0007737Y0090648D01*
X0007516Y0090431D01*
X0007301Y0090209D01*
X0007090Y0089982D01*
X0006886Y0089749D01*
X0006687Y0089511D01*
X0006494Y0089269D01*
X0006307Y0089022D01*
X0006126Y0088771D01*
X0005952Y0088515D01*
X0005783Y0088255D01*
X0005621Y0087991D01*
X0005466Y0087723D01*
X0005317Y0087451D01*
X0005175Y0087176D01*
X0005039Y0086897D01*
X0004911Y0086616D01*
X0004789Y0086331D01*
X0004675Y0086043D01*
X0004567Y0085752D01*
X0004467Y0085459D01*
X0004373Y0085164D01*
X0004287Y0084866D01*
X0004209Y0084567D01*
X0004138Y0084265D01*
X0004074Y0083962D01*
X0004017Y0083658D01*
X0003968Y0083352D01*
X0003927Y0083045D01*
X0003893Y0082737D01*
X0003866Y0082428D01*
X0003847Y0082119D01*
X0003836Y0081810D01*
X0003832Y0081500D01*
X0003836Y0081190D01*
X0003847Y0080881D01*
X0003866Y0080572D01*
X0003893Y0080263D01*
X0003927Y0079955D01*
X0003968Y0079648D01*
X0004017Y0079342D01*
X0004074Y0079038D01*
X0004138Y0078735D01*
X0004209Y0078433D01*
X0004287Y0078134D01*
X0004373Y0077836D01*
X0004467Y0077541D01*
X0004567Y0077248D01*
X0004675Y0076957D01*
X0004789Y0076669D01*
X0004911Y0076384D01*
X0005039Y0076103D01*
X0005175Y0075824D01*
X0005317Y0075549D01*
X0005466Y0075277D01*
X0005621Y0075009D01*
X0005783Y0074745D01*
X0005952Y0074485D01*
X0006126Y0074229D01*
X0006307Y0073978D01*
X0006494Y0073731D01*
X0006687Y0073489D01*
X0006886Y0073251D01*
X0007090Y0073018D01*
X0007301Y0072791D01*
X0007516Y0072569D01*
X0007737Y0072352D01*
X0007964Y0072140D01*
X0008195Y0071934D01*
X0008431Y0071734D01*
X0008673Y0071540D01*
X0008918Y0071351D01*
X0009169Y0071169D01*
X0009424Y0070993D01*
X0009683Y0070823D01*
X0009946Y0070659D01*
X0010213Y0070502D01*
X0010484Y0070352D01*
X0010758Y0070208D01*
X0011036Y0070071D01*
X0011317Y0069941D01*
X0011601Y0069818D01*
X0011888Y0069701D01*
X0012178Y0069592D01*
X0012470Y0069490D01*
X0012765Y0069395D01*
X0013062Y0069307D01*
X0013361Y0069227D01*
X0013662Y0069154D01*
X0013965Y0069088D01*
X0014269Y0069030D01*
X0014575Y0068979D01*
X0014882Y0068936D01*
X0015189Y0068900D01*
X0015498Y0068872D01*
X0015807Y0068851D01*
X0016116Y0068838D01*
X0016426Y0068832D01*
X0016736Y0068834D01*
X0017045Y0068844D01*
X0017355Y0068861D01*
X0017663Y0068886D01*
X0017971Y0068918D01*
X0018279Y0068957D01*
X0018585Y0069005D01*
X0018890Y0069059D01*
X0019193Y0069122D01*
X0019495Y0069191D01*
X0019795Y0069268D01*
X0020093Y0069352D01*
X0020389Y0069444D01*
X0020683Y0069542D01*
X0020974Y0069648D01*
X0021262Y0069761D01*
X0021548Y0069881D01*
X0021830Y0070008D01*
X0022110Y0070142D01*
X0022386Y0070282D01*
X0022658Y0070430D01*
X0022927Y0070583D01*
X0023192Y0070744D01*
X0023453Y0070911D01*
X0023710Y0071084D01*
X0023962Y0071263D01*
X0024211Y0071449D01*
X0024454Y0071640D01*
X0024693Y0071838D01*
X0024926Y0072041D01*
X0025155Y0072250D01*
X0025379Y0072464D01*
X0025597Y0072684D01*
X0025810Y0072909D01*
X0026017Y0073139D01*
X0026219Y0073374D01*
X0026414Y0073614D01*
X0026604Y0073859D01*
X0026529Y0073916D01*
X0026341Y0073673D01*
X0026146Y0073434D01*
X0025946Y0073201D01*
X0025741Y0072973D01*
X0025529Y0072749D01*
X0025313Y0072531D01*
X0025091Y0072318D01*
X0024864Y0072111D01*
X0024632Y0071909D01*
X0024395Y0071713D01*
X0024153Y0071523D01*
X0023907Y0071339D01*
X0023656Y0071161D01*
X0023401Y0070989D01*
X0023142Y0070824D01*
X0022879Y0070664D01*
X0022612Y0070512D01*
X0022342Y0070365D01*
X0022068Y0070226D01*
X0021791Y0070093D01*
X0021510Y0069967D01*
X0021227Y0069848D01*
X0020940Y0069736D01*
X0020651Y0069631D01*
X0020360Y0069533D01*
X0020066Y0069442D01*
X0019770Y0069359D01*
X0019473Y0069282D01*
X0019173Y0069213D01*
X0018872Y0069152D01*
X0018569Y0069097D01*
X0018265Y0069051D01*
X0017960Y0069011D01*
X0017655Y0068979D01*
X0017348Y0068955D01*
X0017041Y0068938D01*
X0016734Y0068928D01*
X0016426Y0068926D01*
X0016119Y0068932D01*
X0015812Y0068945D01*
X0015505Y0068965D01*
X0015199Y0068994D01*
X0014893Y0069029D01*
X0014589Y0069072D01*
X0014286Y0069123D01*
X0013984Y0069180D01*
X0013683Y0069246D01*
X0013384Y0069318D01*
X0013088Y0069398D01*
X0012793Y0069485D01*
X0012500Y0069579D01*
X0012210Y0069681D01*
X0011922Y0069789D01*
X0011637Y0069904D01*
X0011355Y0070027D01*
X0011076Y0070156D01*
X0010800Y0070292D01*
X0010528Y0070435D01*
X0010259Y0070584D01*
X0009994Y0070740D01*
X0009733Y0070902D01*
X0009476Y0071071D01*
X0009223Y0071246D01*
X0008975Y0071427D01*
X0008731Y0071614D01*
X0008491Y0071807D01*
X0008257Y0072005D01*
X0008027Y0072210D01*
X0007802Y0072420D01*
X0007583Y0072635D01*
X0007369Y0072856D01*
X0007160Y0073081D01*
X0006957Y0073312D01*
X0006760Y0073548D01*
X0006568Y0073789D01*
X0006383Y0074034D01*
X0006203Y0074283D01*
X0006030Y0074537D01*
X0005863Y0074795D01*
X0005702Y0075057D01*
X0005548Y0075323D01*
X0005400Y0075593D01*
X0005259Y0075866D01*
X0005124Y0076143D01*
X0004997Y0076422D01*
X0004876Y0076705D01*
X0004762Y0076991D01*
X0004656Y0077279D01*
X0004556Y0077570D01*
X0004463Y0077863D01*
X0004378Y0078159D01*
X0004300Y0078456D01*
X0004229Y0078755D01*
X0004166Y0079056D01*
X0004110Y0079358D01*
X0004061Y0079662D01*
X0004020Y0079967D01*
X0003986Y0080272D01*
X0003960Y0080578D01*
X0003941Y0080885D01*
X0003930Y0081193D01*
X0003926Y0081500D01*
X0003930Y0081807D01*
X0003941Y0082115D01*
X0003960Y0082422D01*
X0003986Y0082728D01*
X0004020Y0083033D01*
X0004061Y0083338D01*
X0004110Y0083642D01*
X0004166Y0083944D01*
X0004229Y0084245D01*
X0004300Y0084544D01*
X0004378Y0084841D01*
X0004463Y0085137D01*
X0004556Y0085430D01*
X0004656Y0085721D01*
X0004762Y0086009D01*
X0004876Y0086295D01*
X0004997Y0086578D01*
X0005124Y0086857D01*
X0005259Y0087134D01*
X0005400Y0087407D01*
X0005548Y0087677D01*
X0005702Y0087943D01*
X0005863Y0088205D01*
X0006030Y0088463D01*
X0006203Y0088717D01*
X0006383Y0088966D01*
X0006568Y0089211D01*
X0006760Y0089452D01*
X0006957Y0089688D01*
X0007160Y0089919D01*
X0007369Y0090144D01*
X0007583Y0090365D01*
X0007802Y0090580D01*
X0008027Y0090790D01*
X0008257Y0090995D01*
X0008491Y0091193D01*
X0008731Y0091386D01*
X0008975Y0091573D01*
X0009223Y0091754D01*
X0009476Y0091929D01*
X0009733Y0092098D01*
X0009994Y0092260D01*
X0010259Y0092416D01*
X0010528Y0092565D01*
X0010800Y0092708D01*
X0011076Y0092844D01*
X0011355Y0092973D01*
X0011637Y0093096D01*
X0011922Y0093211D01*
X0012210Y0093319D01*
X0012500Y0093421D01*
X0012793Y0093515D01*
X0013088Y0093602D01*
X0013384Y0093682D01*
X0013683Y0093754D01*
X0013984Y0093820D01*
X0014286Y0093877D01*
X0014589Y0093928D01*
X0014893Y0093971D01*
X0015199Y0094006D01*
X0015505Y0094035D01*
X0015812Y0094055D01*
X0016119Y0094068D01*
X0016426Y0094074D01*
X0016734Y0094072D01*
X0017041Y0094062D01*
X0017348Y0094045D01*
X0017655Y0094021D01*
X0017960Y0093989D01*
X0018265Y0093949D01*
X0018569Y0093903D01*
X0018872Y0093848D01*
X0019173Y0093787D01*
X0019473Y0093718D01*
X0019770Y0093641D01*
X0020066Y0093558D01*
X0020360Y0093467D01*
X0020651Y0093369D01*
X0020940Y0093264D01*
X0021227Y0093152D01*
X0021510Y0093033D01*
X0021791Y0092907D01*
X0022068Y0092774D01*
X0022342Y0092635D01*
X0022612Y0092488D01*
X0022879Y0092336D01*
X0023142Y0092176D01*
X0023401Y0092011D01*
X0023656Y0091839D01*
X0023907Y0091661D01*
X0024153Y0091477D01*
X0024395Y0091287D01*
X0024632Y0091091D01*
X0024864Y0090889D01*
X0025091Y0090682D01*
X0025313Y0090469D01*
X0025529Y0090251D01*
X0025741Y0090027D01*
X0025946Y0089799D01*
X0026146Y0089566D01*
X0026341Y0089327D01*
X0026529Y0089084D01*
X0026454Y0089028D01*
X0026267Y0089269D01*
X0026074Y0089506D01*
X0025875Y0089737D01*
X0025671Y0089964D01*
X0025462Y0090186D01*
X0025247Y0090402D01*
X0025026Y0090613D01*
X0024801Y0090819D01*
X0024571Y0091019D01*
X0024335Y0091214D01*
X0024096Y0091402D01*
X0023851Y0091585D01*
X0023602Y0091762D01*
X0023349Y0091932D01*
X0023092Y0092097D01*
X0022831Y0092255D01*
X0022566Y0092406D01*
X0022298Y0092551D01*
X0022026Y0092690D01*
X0021751Y0092822D01*
X0021472Y0092947D01*
X0021191Y0093065D01*
X0020907Y0093176D01*
X0020620Y0093280D01*
X0020331Y0093378D01*
X0020039Y0093468D01*
X0019746Y0093551D01*
X0019450Y0093626D01*
X0019153Y0093695D01*
X0018854Y0093756D01*
X0018553Y0093810D01*
X0018252Y0093856D01*
X0017949Y0093896D01*
X0017646Y0093927D01*
X0017341Y0093952D01*
X0017037Y0093968D01*
X0016732Y0093978D01*
X0016427Y0093980D01*
X0016122Y0093974D01*
X0015817Y0093961D01*
X0015512Y0093941D01*
X0015208Y0093913D01*
X0014905Y0093878D01*
X0014603Y0093835D01*
X0014302Y0093785D01*
X0014002Y0093728D01*
X0013704Y0093663D01*
X0013408Y0093591D01*
X0013113Y0093512D01*
X0012820Y0093425D01*
X0012530Y0093332D01*
X0012242Y0093231D01*
X0011956Y0093123D01*
X0011673Y0093009D01*
X0011393Y0092887D01*
X0011116Y0092759D01*
X0010843Y0092624D01*
X0010573Y0092483D01*
X0010306Y0092334D01*
X0010043Y0092180D01*
X0009784Y0092019D01*
X0009528Y0091851D01*
X0009277Y0091678D01*
X0009031Y0091498D01*
X0008789Y0091312D01*
X0008551Y0091121D01*
X0008318Y0090924D01*
X0008090Y0090721D01*
X0007867Y0090512D01*
X0007649Y0090299D01*
X0007437Y0090080D01*
X0007230Y0089856D01*
X0007028Y0089626D01*
X0006832Y0089392D01*
X0006642Y0089154D01*
X0006458Y0088910D01*
X0006280Y0088663D01*
X0006108Y0088411D01*
X0005942Y0088154D01*
X0005783Y0087894D01*
X0005629Y0087630D01*
X0005483Y0087363D01*
X0005343Y0087092D01*
X0005209Y0086817D01*
X0005083Y0086540D01*
X0004963Y0086259D01*
X0004850Y0085975D01*
X0004744Y0085689D01*
X0004645Y0085401D01*
X0004553Y0085110D01*
X0004469Y0084816D01*
X0004391Y0084521D01*
X0004321Y0084224D01*
X0004258Y0083926D01*
X0004202Y0083626D01*
X0004154Y0083324D01*
X0004113Y0083022D01*
X0004080Y0082719D01*
X0004054Y0082415D01*
X0004035Y0082110D01*
X0004024Y0081805D01*
X0004020Y0081500D01*
X0004024Y0081195D01*
X0004035Y0080890D01*
X0004054Y0080585D01*
X0004080Y0080281D01*
X0004113Y0079978D01*
X0004154Y0079676D01*
X0004202Y0079374D01*
X0004258Y0079074D01*
X0004321Y0078776D01*
X0004391Y0078479D01*
X0004469Y0078184D01*
X0004553Y0077890D01*
X0004645Y0077599D01*
X0004744Y0077311D01*
X0004850Y0077025D01*
X0004963Y0076741D01*
X0005083Y0076460D01*
X0005209Y0076183D01*
X0005343Y0075908D01*
X0005483Y0075637D01*
X0005629Y0075370D01*
X0005783Y0075106D01*
X0005942Y0074846D01*
X0006108Y0074589D01*
X0006280Y0074337D01*
X0006458Y0074090D01*
X0006642Y0073846D01*
X0006832Y0073608D01*
X0007028Y0073374D01*
X0007230Y0073144D01*
X0007437Y0072920D01*
X0007649Y0072701D01*
X0007867Y0072488D01*
X0008090Y0072279D01*
X0008318Y0072076D01*
X0008551Y0071879D01*
X0008789Y0071688D01*
X0009031Y0071502D01*
X0009277Y0071322D01*
X0009528Y0071149D01*
X0009784Y0070981D01*
X0010043Y0070820D01*
X0010306Y0070666D01*
X0010573Y0070517D01*
X0010843Y0070376D01*
X0011116Y0070241D01*
X0011393Y0070113D01*
X0011673Y0069991D01*
X0011956Y0069877D01*
X0012242Y0069769D01*
X0012530Y0069668D01*
X0012820Y0069575D01*
X0013113Y0069488D01*
X0013408Y0069409D01*
X0013704Y0069337D01*
X0014002Y0069272D01*
X0014302Y0069215D01*
X0014603Y0069165D01*
X0014905Y0069122D01*
X0015208Y0069087D01*
X0015512Y0069059D01*
X0015817Y0069039D01*
X0016122Y0069026D01*
X0016427Y0069020D01*
X0016732Y0069022D01*
X0017037Y0069032D01*
X0017341Y0069048D01*
X0017646Y0069073D01*
X0017949Y0069104D01*
X0018252Y0069144D01*
X0018553Y0069190D01*
X0018854Y0069244D01*
X0019153Y0069305D01*
X0019450Y0069374D01*
X0019746Y0069449D01*
X0020039Y0069532D01*
X0020331Y0069622D01*
X0020620Y0069720D01*
X0020907Y0069824D01*
X0021191Y0069935D01*
X0021472Y0070053D01*
X0021751Y0070178D01*
X0022026Y0070310D01*
X0022298Y0070449D01*
X0022566Y0070594D01*
X0022831Y0070745D01*
X0023092Y0070903D01*
X0023349Y0071068D01*
X0023602Y0071238D01*
X0023851Y0071415D01*
X0024096Y0071598D01*
X0024335Y0071786D01*
X0024571Y0071981D01*
X0024801Y0072181D01*
X0025026Y0072387D01*
X0025247Y0072598D01*
X0025462Y0072814D01*
X0025671Y0073036D01*
X0025875Y0073263D01*
X0026074Y0073494D01*
X0026267Y0073731D01*
X0026454Y0073972D01*
X0026379Y0074028D01*
X0026193Y0073789D01*
X0026002Y0073554D01*
X0025805Y0073325D01*
X0025602Y0073100D01*
X0025394Y0072879D01*
X0025180Y0072665D01*
X0024962Y0072455D01*
X0024738Y0072251D01*
X0024510Y0072052D01*
X0024276Y0071859D01*
X0024038Y0071672D01*
X0023796Y0071491D01*
X0023549Y0071315D01*
X0023298Y0071146D01*
X0023042Y0070983D01*
X0022783Y0070826D01*
X0022520Y0070676D01*
X0022254Y0070532D01*
X0021984Y0070394D01*
X0021711Y0070263D01*
X0021435Y0070139D01*
X0021155Y0070022D01*
X0020873Y0069912D01*
X0020589Y0069808D01*
X0020302Y0069712D01*
X0020012Y0069622D01*
X0019721Y0069540D01*
X0019428Y0069465D01*
X0019132Y0069397D01*
X0018836Y0069336D01*
X0018538Y0069283D01*
X0018238Y0069237D01*
X0017938Y0069198D01*
X0017637Y0069166D01*
X0017335Y0069142D01*
X0017032Y0069125D01*
X0016730Y0069116D01*
X0016427Y0069114D01*
X0016124Y0069120D01*
X0015822Y0069133D01*
X0015519Y0069153D01*
X0015218Y0069181D01*
X0014917Y0069216D01*
X0014617Y0069258D01*
X0014318Y0069308D01*
X0014021Y0069365D01*
X0013725Y0069429D01*
X0013431Y0069500D01*
X0013138Y0069579D01*
X0012848Y0069665D01*
X0012559Y0069758D01*
X0012274Y0069857D01*
X0011990Y0069964D01*
X0011710Y0070078D01*
X0011432Y0070198D01*
X0011157Y0070326D01*
X0010885Y0070460D01*
X0010617Y0070600D01*
X0010352Y0070747D01*
X0010091Y0070901D01*
X0009834Y0071061D01*
X0009581Y0071227D01*
X0009332Y0071399D01*
X0009087Y0071577D01*
X0008846Y0071762D01*
X0008611Y0071952D01*
X0008380Y0072147D01*
X0008153Y0072349D01*
X0007932Y0072555D01*
X0007716Y0072768D01*
X0007505Y0072985D01*
X0007300Y0073207D01*
X0007100Y0073435D01*
X0006905Y0073667D01*
X0006717Y0073904D01*
X0006534Y0074146D01*
X0006357Y0074391D01*
X0006186Y0074642D01*
X0006022Y0074896D01*
X0005863Y0075154D01*
X0005711Y0075416D01*
X0005566Y0075681D01*
X0005427Y0075950D01*
X0005294Y0076223D01*
X0005169Y0076498D01*
X0005050Y0076777D01*
X0004938Y0077058D01*
X0004833Y0077342D01*
X0004734Y0077629D01*
X0004643Y0077918D01*
X0004559Y0078209D01*
X0004482Y0078502D01*
X0004413Y0078796D01*
X0004350Y0079093D01*
X0004295Y0079390D01*
X0004247Y0079689D01*
X0004206Y0079989D01*
X0004173Y0080291D01*
X0004147Y0080592D01*
X0004129Y0080895D01*
X0004118Y0081197D01*
X0004114Y0081500D01*
X0004118Y0081803D01*
X0004129Y0082105D01*
X0004147Y0082408D01*
X0004173Y0082709D01*
X0004206Y0083011D01*
X0004247Y0083311D01*
X0004295Y0083610D01*
X0004350Y0083907D01*
X0004413Y0084204D01*
X0004482Y0084498D01*
X0004559Y0084791D01*
X0004643Y0085082D01*
X0004734Y0085371D01*
X0004833Y0085658D01*
X0004938Y0085942D01*
X0005050Y0086223D01*
X0005169Y0086502D01*
X0005294Y0086777D01*
X0005427Y0087050D01*
X0005566Y0087319D01*
X0005711Y0087584D01*
X0005863Y0087846D01*
X0006022Y0088104D01*
X0006186Y0088358D01*
X0006357Y0088609D01*
X0006534Y0088854D01*
X0006717Y0089096D01*
X0006905Y0089333D01*
X0007100Y0089565D01*
X0007300Y0089793D01*
X0007505Y0090015D01*
X0007716Y0090232D01*
X0007932Y0090445D01*
X0008153Y0090651D01*
X0008380Y0090853D01*
X0008611Y0091048D01*
X0008846Y0091238D01*
X0009087Y0091423D01*
X0009332Y0091601D01*
X0009581Y0091773D01*
X0009834Y0091939D01*
X0010091Y0092099D01*
X0010352Y0092253D01*
X0010617Y0092400D01*
X0010885Y0092540D01*
X0011157Y0092674D01*
X0011432Y0092802D01*
X0011710Y0092922D01*
X0011990Y0093036D01*
X0012274Y0093143D01*
X0012559Y0093242D01*
X0012848Y0093335D01*
X0013138Y0093421D01*
X0013431Y0093500D01*
X0013725Y0093571D01*
X0014021Y0093635D01*
X0014318Y0093692D01*
X0014617Y0093742D01*
X0014917Y0093784D01*
X0015218Y0093819D01*
X0015519Y0093847D01*
X0015822Y0093867D01*
X0016124Y0093880D01*
X0016427Y0093886D01*
X0016730Y0093884D01*
X0017032Y0093875D01*
X0017335Y0093858D01*
X0017637Y0093834D01*
X0017938Y0093802D01*
X0018238Y0093763D01*
X0018538Y0093717D01*
X0018836Y0093664D01*
X0019132Y0093603D01*
X0019428Y0093535D01*
X0019721Y0093460D01*
X0020012Y0093378D01*
X0020302Y0093288D01*
X0020589Y0093192D01*
X0020873Y0093088D01*
X0021155Y0092978D01*
X0021435Y0092861D01*
X0021711Y0092737D01*
X0021984Y0092606D01*
X0022254Y0092468D01*
X0022520Y0092324D01*
X0022783Y0092174D01*
X0023042Y0092017D01*
X0023298Y0091854D01*
X0023549Y0091685D01*
X0023796Y0091509D01*
X0024038Y0091328D01*
X0024276Y0091141D01*
X0024510Y0090948D01*
X0024738Y0090749D01*
X0024962Y0090545D01*
X0025180Y0090335D01*
X0025394Y0090121D01*
X0025602Y0089900D01*
X0025805Y0089675D01*
X0026002Y0089446D01*
X0026193Y0089211D01*
X0026379Y0088972D01*
X0026304Y0088915D01*
X0026119Y0089153D01*
X0025929Y0089385D01*
X0025734Y0089614D01*
X0025533Y0089837D01*
X0025326Y0090055D01*
X0025114Y0090269D01*
X0024897Y0090477D01*
X0024675Y0090679D01*
X0024448Y0090876D01*
X0024217Y0091068D01*
X0023981Y0091254D01*
X0023740Y0091434D01*
X0023495Y0091608D01*
X0023246Y0091776D01*
X0022992Y0091938D01*
X0022735Y0092093D01*
X0022474Y0092242D01*
X0022210Y0092385D01*
X0021942Y0092522D01*
X0021671Y0092651D01*
X0021397Y0092774D01*
X0021120Y0092891D01*
X0020840Y0093000D01*
X0020557Y0093103D01*
X0020273Y0093199D01*
X0019985Y0093287D01*
X0019696Y0093369D01*
X0019405Y0093444D01*
X0019112Y0093511D01*
X0018818Y0093572D01*
X0018522Y0093625D01*
X0018225Y0093670D01*
X0017927Y0093709D01*
X0017628Y0093740D01*
X0017328Y0093764D01*
X0017028Y0093781D01*
X0016728Y0093790D01*
X0016427Y0093792D01*
X0016127Y0093786D01*
X0015826Y0093774D01*
X0015527Y0093753D01*
X0015227Y0093726D01*
X0014929Y0093691D01*
X0014631Y0093649D01*
X0014335Y0093600D01*
X0014040Y0093543D01*
X0013746Y0093479D01*
X0013454Y0093409D01*
X0013164Y0093331D01*
X0012875Y0093245D01*
X0012589Y0093153D01*
X0012305Y0093054D01*
X0012024Y0092948D01*
X0011746Y0092835D01*
X0011470Y0092716D01*
X0011197Y0092589D01*
X0010928Y0092456D01*
X0010662Y0092317D01*
X0010399Y0092171D01*
X0010140Y0092019D01*
X0009884Y0091860D01*
X0009633Y0091695D01*
X0009386Y0091524D01*
X0009143Y0091347D01*
X0008904Y0091164D01*
X0008670Y0090976D01*
X0008441Y0090782D01*
X0008217Y0090582D01*
X0007997Y0090377D01*
X0007783Y0090166D01*
X0007573Y0089950D01*
X0007369Y0089730D01*
X0007171Y0089504D01*
X0006978Y0089273D01*
X0006791Y0089038D01*
X0006609Y0088799D01*
X0006434Y0088555D01*
X0006264Y0088306D01*
X0006101Y0088054D01*
X0005944Y0087798D01*
X0005793Y0087538D01*
X0005649Y0087274D01*
X0005511Y0087007D01*
X0005379Y0086737D01*
X0005255Y0086464D01*
X0005137Y0086187D01*
X0005026Y0085908D01*
X0004921Y0085626D01*
X0004824Y0085342D01*
X0004733Y0085055D01*
X0004650Y0084766D01*
X0004574Y0084476D01*
X0004504Y0084183D01*
X0004442Y0083889D01*
X0004388Y0083594D01*
X0004340Y0083297D01*
X0004300Y0082999D01*
X0004267Y0082700D01*
X0004241Y0082401D01*
X0004223Y0082101D01*
X0004212Y0081801D01*
X0004208Y0081500D01*
X0004212Y0081199D01*
X0004223Y0080899D01*
X0004241Y0080599D01*
X0004267Y0080300D01*
X0004300Y0080001D01*
X0004340Y0079703D01*
X0004388Y0079406D01*
X0004442Y0079111D01*
X0004504Y0078817D01*
X0004574Y0078524D01*
X0004650Y0078234D01*
X0004733Y0077945D01*
X0004824Y0077658D01*
X0004921Y0077374D01*
X0005026Y0077092D01*
X0005137Y0076813D01*
X0005255Y0076536D01*
X0005379Y0076263D01*
X0005511Y0075993D01*
X0005649Y0075726D01*
X0005793Y0075462D01*
X0005944Y0075202D01*
X0006101Y0074946D01*
X0006264Y0074694D01*
X0006434Y0074445D01*
X0006609Y0074201D01*
X0006791Y0073962D01*
X0006978Y0073727D01*
X0007171Y0073496D01*
X0007369Y0073270D01*
X0007573Y0073050D01*
X0007783Y0072834D01*
X0007997Y0072623D01*
X0008217Y0072418D01*
X0008441Y0072218D01*
X0008670Y0072024D01*
X0008904Y0071836D01*
X0009143Y0071653D01*
X0009386Y0071476D01*
X0009633Y0071305D01*
X0009884Y0071140D01*
X0010140Y0070981D01*
X0010399Y0070829D01*
X0010662Y0070683D01*
X0010928Y0070544D01*
X0011197Y0070411D01*
X0011470Y0070284D01*
X0011746Y0070165D01*
X0012024Y0070052D01*
X0012305Y0069946D01*
X0012589Y0069847D01*
X0012875Y0069755D01*
X0013164Y0069669D01*
X0013454Y0069591D01*
X0013746Y0069521D01*
X0014040Y0069457D01*
X0014335Y0069400D01*
X0014631Y0069351D01*
X0014929Y0069309D01*
X0015227Y0069274D01*
X0015527Y0069247D01*
X0015826Y0069226D01*
X0016127Y0069214D01*
X0016427Y0069208D01*
X0016728Y0069210D01*
X0017028Y0069219D01*
X0017328Y0069236D01*
X0017628Y0069260D01*
X0017927Y0069291D01*
X0018225Y0069330D01*
X0018522Y0069375D01*
X0018818Y0069428D01*
X0019112Y0069489D01*
X0019405Y0069556D01*
X0019696Y0069631D01*
X0019985Y0069713D01*
X0020273Y0069801D01*
X0020557Y0069897D01*
X0020840Y0070000D01*
X0021120Y0070109D01*
X0021397Y0070226D01*
X0021671Y0070349D01*
X0021942Y0070478D01*
X0022210Y0070615D01*
X0022474Y0070758D01*
X0022735Y0070907D01*
X0022992Y0071062D01*
X0023246Y0071224D01*
X0023495Y0071392D01*
X0023740Y0071566D01*
X0023981Y0071746D01*
X0024217Y0071932D01*
X0024448Y0072124D01*
X0024675Y0072321D01*
X0024897Y0072523D01*
X0025114Y0072731D01*
X0025326Y0072945D01*
X0025533Y0073163D01*
X0025734Y0073386D01*
X0025929Y0073615D01*
X0026119Y0073847D01*
X0026304Y0074085D01*
X0026228Y0074141D01*
X0026046Y0073906D01*
X0025857Y0073675D01*
X0025663Y0073448D01*
X0025463Y0073226D01*
X0025258Y0073010D01*
X0025048Y0072798D01*
X0024833Y0072592D01*
X0024613Y0072391D01*
X0024387Y0072195D01*
X0024158Y0072005D01*
X0023923Y0071821D01*
X0023684Y0071642D01*
X0023441Y0071469D01*
X0023194Y0071303D01*
X0022942Y0071142D01*
X0022687Y0070988D01*
X0022428Y0070840D01*
X0022166Y0070698D01*
X0021900Y0070563D01*
X0021631Y0070434D01*
X0021359Y0070312D01*
X0021084Y0070196D01*
X0020806Y0070087D01*
X0020526Y0069986D01*
X0020243Y0069891D01*
X0019958Y0069803D01*
X0019671Y0069722D01*
X0019383Y0069647D01*
X0019092Y0069581D01*
X0018800Y0069521D01*
X0018506Y0069468D01*
X0018211Y0069423D01*
X0017916Y0069384D01*
X0017619Y0069353D01*
X0017322Y0069330D01*
X0017024Y0069313D01*
X0016726Y0069304D01*
X0016428Y0069302D01*
X0016129Y0069308D01*
X0015831Y0069320D01*
X0015534Y0069340D01*
X0015237Y0069368D01*
X0014941Y0069402D01*
X0014645Y0069444D01*
X0014351Y0069493D01*
X0014058Y0069549D01*
X0013767Y0069612D01*
X0013477Y0069683D01*
X0013189Y0069760D01*
X0012903Y0069844D01*
X0012619Y0069936D01*
X0012337Y0070034D01*
X0012058Y0070139D01*
X0011782Y0070251D01*
X0011508Y0070370D01*
X0011238Y0070495D01*
X0010970Y0070627D01*
X0010706Y0070766D01*
X0010445Y0070911D01*
X0010188Y0071062D01*
X0009935Y0071219D01*
X0009686Y0071383D01*
X0009440Y0071553D01*
X0009199Y0071728D01*
X0008962Y0071910D01*
X0008730Y0072097D01*
X0008503Y0072289D01*
X0008280Y0072488D01*
X0008062Y0072691D01*
X0007849Y0072900D01*
X0007641Y0073114D01*
X0007439Y0073334D01*
X0007242Y0073557D01*
X0007051Y0073786D01*
X0006865Y0074020D01*
X0006685Y0074257D01*
X0006511Y0074499D01*
X0006343Y0074746D01*
X0006181Y0074996D01*
X0006025Y0075250D01*
X0005875Y0075508D01*
X0005732Y0075770D01*
X0005595Y0076035D01*
X0005464Y0076303D01*
X0005341Y0076574D01*
X0005224Y0076849D01*
X0005113Y0077126D01*
X0005010Y0077406D01*
X0004913Y0077688D01*
X0004823Y0077972D01*
X0004741Y0078259D01*
X0004665Y0078547D01*
X0004596Y0078837D01*
X0004535Y0079129D01*
X0004480Y0079422D01*
X0004433Y0079717D01*
X0004393Y0080012D01*
X0004360Y0080309D01*
X0004335Y0080606D01*
X0004317Y0080904D01*
X0004306Y0081202D01*
X0004302Y0081500D01*
X0004306Y0081798D01*
X0004317Y0082096D01*
X0004335Y0082394D01*
X0004360Y0082691D01*
X0004393Y0082988D01*
X0004433Y0083283D01*
X0004480Y0083578D01*
X0004535Y0083871D01*
X0004596Y0084163D01*
X0004665Y0084453D01*
X0004741Y0084741D01*
X0004823Y0085028D01*
X0004913Y0085312D01*
X0005010Y0085594D01*
X0005113Y0085874D01*
X0005224Y0086151D01*
X0005341Y0086426D01*
X0005464Y0086697D01*
X0005595Y0086965D01*
X0005732Y0087230D01*
X0005875Y0087492D01*
X0006025Y0087750D01*
X0006181Y0088004D01*
X0006343Y0088254D01*
X0006511Y0088501D01*
X0006685Y0088743D01*
X0006865Y0088980D01*
X0007051Y0089214D01*
X0007242Y0089443D01*
X0007439Y0089666D01*
X0007641Y0089886D01*
X0007849Y0090100D01*
X0008062Y0090309D01*
X0008280Y0090512D01*
X0008503Y0090711D01*
X0008730Y0090903D01*
X0008962Y0091090D01*
X0009199Y0091272D01*
X0009440Y0091447D01*
X0009686Y0091617D01*
X0009935Y0091781D01*
X0010188Y0091938D01*
X0010445Y0092089D01*
X0010706Y0092234D01*
X0010970Y0092373D01*
X0011238Y0092505D01*
X0011508Y0092630D01*
X0011782Y0092749D01*
X0012058Y0092861D01*
X0012337Y0092966D01*
X0012619Y0093064D01*
X0012903Y0093156D01*
X0013189Y0093240D01*
X0013477Y0093317D01*
X0013767Y0093388D01*
X0014058Y0093451D01*
X0014351Y0093507D01*
X0014645Y0093556D01*
X0014941Y0093598D01*
X0015237Y0093632D01*
X0015534Y0093660D01*
X0015831Y0093680D01*
X0016129Y0093692D01*
X0016428Y0093698D01*
X0016726Y0093696D01*
X0017024Y0093687D01*
X0017322Y0093670D01*
X0017619Y0093647D01*
X0017916Y0093616D01*
X0018211Y0093577D01*
X0018506Y0093532D01*
X0018800Y0093479D01*
X0019092Y0093419D01*
X0019383Y0093353D01*
X0019671Y0093278D01*
X0019958Y0093197D01*
X0020243Y0093109D01*
X0020526Y0093014D01*
X0020806Y0092913D01*
X0021084Y0092804D01*
X0021359Y0092688D01*
X0021631Y0092566D01*
X0021900Y0092437D01*
X0022166Y0092302D01*
X0022428Y0092160D01*
X0022687Y0092012D01*
X0022942Y0091858D01*
X0023194Y0091697D01*
X0023441Y0091531D01*
X0023684Y0091358D01*
X0023923Y0091179D01*
X0024158Y0090995D01*
X0024387Y0090805D01*
X0024613Y0090609D01*
X0024833Y0090408D01*
X0025048Y0090202D01*
X0025258Y0089990D01*
X0025463Y0089774D01*
X0025663Y0089552D01*
X0025857Y0089325D01*
X0026046Y0089094D01*
X0026228Y0088859D01*
X0026153Y0088802D01*
X0025972Y0089036D01*
X0025785Y0089265D01*
X0025592Y0089490D01*
X0025394Y0089710D01*
X0025191Y0089925D01*
X0024982Y0090135D01*
X0024768Y0090340D01*
X0024550Y0090539D01*
X0024326Y0090733D01*
X0024098Y0090922D01*
X0023866Y0091105D01*
X0023629Y0091282D01*
X0023387Y0091453D01*
X0023142Y0091619D01*
X0022893Y0091778D01*
X0022639Y0091931D01*
X0022383Y0092078D01*
X0022122Y0092219D01*
X0021858Y0092353D01*
X0021591Y0092481D01*
X0021321Y0092602D01*
X0021049Y0092717D01*
X0020773Y0092825D01*
X0020495Y0092926D01*
X0020214Y0093020D01*
X0019932Y0093107D01*
X0019647Y0093188D01*
X0019360Y0093261D01*
X0019072Y0093328D01*
X0018782Y0093387D01*
X0018490Y0093439D01*
X0018198Y0093484D01*
X0017904Y0093522D01*
X0017610Y0093553D01*
X0017315Y0093577D01*
X0017020Y0093593D01*
X0016724Y0093602D01*
X0016428Y0093604D01*
X0016132Y0093598D01*
X0015836Y0093586D01*
X0015541Y0093566D01*
X0015246Y0093539D01*
X0014952Y0093505D01*
X0014659Y0093463D01*
X0014367Y0093415D01*
X0014077Y0093359D01*
X0013788Y0093296D01*
X0013500Y0093226D01*
X0013214Y0093149D01*
X0012930Y0093066D01*
X0012649Y0092975D01*
X0012369Y0092877D01*
X0012092Y0092773D01*
X0011818Y0092662D01*
X0011547Y0092544D01*
X0011278Y0092420D01*
X0011013Y0092289D01*
X0010751Y0092151D01*
X0010492Y0092008D01*
X0010237Y0091858D01*
X0009985Y0091701D01*
X0009738Y0091539D01*
X0009495Y0091371D01*
X0009255Y0091196D01*
X0009020Y0091016D01*
X0008790Y0090831D01*
X0008564Y0090639D01*
X0008343Y0090443D01*
X0008127Y0090241D01*
X0007916Y0090033D01*
X0007710Y0089821D01*
X0007509Y0089603D01*
X0007313Y0089381D01*
X0007123Y0089154D01*
X0006939Y0088923D01*
X0006761Y0088687D01*
X0006588Y0088447D01*
X0006421Y0088202D01*
X0006260Y0087954D01*
X0006105Y0087701D01*
X0005957Y0087445D01*
X0005815Y0087186D01*
X0005679Y0086923D01*
X0005549Y0086657D01*
X0005427Y0086388D01*
X0005310Y0086115D01*
X0005201Y0085840D01*
X0005098Y0085563D01*
X0005002Y0085283D01*
X0004913Y0085001D01*
X0004831Y0084716D01*
X0004756Y0084430D01*
X0004688Y0084142D01*
X0004627Y0083853D01*
X0004573Y0083562D01*
X0004526Y0083269D01*
X0004486Y0082976D01*
X0004454Y0082682D01*
X0004429Y0082387D01*
X0004410Y0082092D01*
X0004400Y0081796D01*
X0004396Y0081500D01*
X0004400Y0081204D01*
X0004410Y0080908D01*
X0004429Y0080613D01*
X0004454Y0080318D01*
X0004486Y0080024D01*
X0004526Y0079731D01*
X0004573Y0079438D01*
X0004627Y0079147D01*
X0004688Y0078858D01*
X0004756Y0078570D01*
X0004831Y0078284D01*
X0004913Y0077999D01*
X0005002Y0077717D01*
X0005098Y0077437D01*
X0005201Y0077160D01*
X0005310Y0076885D01*
X0005427Y0076612D01*
X0005549Y0076343D01*
X0005679Y0076077D01*
X0005815Y0075814D01*
X0005957Y0075555D01*
X0006105Y0075299D01*
X0006260Y0075046D01*
X0006421Y0074798D01*
X0006588Y0074553D01*
X0006761Y0074313D01*
X0006939Y0074077D01*
X0007123Y0073846D01*
X0007313Y0073619D01*
X0007509Y0073397D01*
X0007710Y0073179D01*
X0007916Y0072967D01*
X0008127Y0072759D01*
X0008343Y0072557D01*
X0008564Y0072361D01*
X0008790Y0072169D01*
X0009020Y0071984D01*
X0009255Y0071804D01*
X0009495Y0071629D01*
X0009738Y0071461D01*
X0009985Y0071299D01*
X0010237Y0071142D01*
X0010492Y0070992D01*
X0010751Y0070849D01*
X0011013Y0070711D01*
X0011278Y0070580D01*
X0011547Y0070456D01*
X0011818Y0070338D01*
X0012092Y0070227D01*
X0012369Y0070123D01*
X0012649Y0070025D01*
X0012930Y0069934D01*
X0013214Y0069851D01*
X0013500Y0069774D01*
X0013788Y0069704D01*
X0014077Y0069641D01*
X0014367Y0069585D01*
X0014659Y0069537D01*
X0014952Y0069495D01*
X0015246Y0069461D01*
X0015541Y0069434D01*
X0015836Y0069414D01*
X0016132Y0069402D01*
X0016428Y0069396D01*
X0016724Y0069398D01*
X0017020Y0069407D01*
X0017315Y0069423D01*
X0017610Y0069447D01*
X0017904Y0069478D01*
X0018198Y0069516D01*
X0018490Y0069561D01*
X0018782Y0069613D01*
X0019072Y0069672D01*
X0019360Y0069739D01*
X0019647Y0069812D01*
X0019932Y0069893D01*
X0020214Y0069980D01*
X0020495Y0070074D01*
X0020773Y0070175D01*
X0021049Y0070283D01*
X0021321Y0070398D01*
X0021591Y0070519D01*
X0021858Y0070647D01*
X0022122Y0070781D01*
X0022383Y0070922D01*
X0022639Y0071069D01*
X0022893Y0071222D01*
X0023142Y0071381D01*
X0023387Y0071547D01*
X0023629Y0071718D01*
X0023866Y0071895D01*
X0024098Y0072078D01*
X0024326Y0072267D01*
X0024550Y0072461D01*
X0024768Y0072660D01*
X0024982Y0072865D01*
X0025191Y0073075D01*
X0025394Y0073290D01*
X0025592Y0073510D01*
X0025785Y0073735D01*
X0025972Y0073964D01*
X0026153Y0074198D01*
D14*
X0006500Y0081500D02*
X0006503Y0081745D01*
X0006512Y0081991D01*
X0006527Y0082236D01*
X0006548Y0082480D01*
X0006575Y0082724D01*
X0006608Y0082967D01*
X0006647Y0083210D01*
X0006692Y0083451D01*
X0006743Y0083691D01*
X0006800Y0083930D01*
X0006862Y0084167D01*
X0006931Y0084403D01*
X0007005Y0084637D01*
X0007085Y0084869D01*
X0007170Y0085099D01*
X0007261Y0085327D01*
X0007358Y0085552D01*
X0007460Y0085776D01*
X0007568Y0085996D01*
X0007681Y0086214D01*
X0007799Y0086429D01*
X0007923Y0086641D01*
X0008051Y0086850D01*
X0008185Y0087056D01*
X0008324Y0087258D01*
X0008468Y0087457D01*
X0008617Y0087652D01*
X0008770Y0087844D01*
X0008928Y0088032D01*
X0009090Y0088216D01*
X0009258Y0088395D01*
X0009429Y0088571D01*
X0009605Y0088742D01*
X0009784Y0088910D01*
X0009968Y0089072D01*
X0010156Y0089230D01*
X0010348Y0089383D01*
X0010543Y0089532D01*
X0010742Y0089676D01*
X0010944Y0089815D01*
X0011150Y0089949D01*
X0011359Y0090077D01*
X0011571Y0090201D01*
X0011786Y0090319D01*
X0012004Y0090432D01*
X0012224Y0090540D01*
X0012448Y0090642D01*
X0012673Y0090739D01*
X0012901Y0090830D01*
X0013131Y0090915D01*
X0013363Y0090995D01*
X0013597Y0091069D01*
X0013833Y0091138D01*
X0014070Y0091200D01*
X0014309Y0091257D01*
X0014549Y0091308D01*
X0014790Y0091353D01*
X0015033Y0091392D01*
X0015276Y0091425D01*
X0015520Y0091452D01*
X0015764Y0091473D01*
X0016009Y0091488D01*
X0016255Y0091497D01*
X0016500Y0091500D01*
X0016745Y0091497D01*
X0016991Y0091488D01*
X0017236Y0091473D01*
X0017480Y0091452D01*
X0017724Y0091425D01*
X0017967Y0091392D01*
X0018210Y0091353D01*
X0018451Y0091308D01*
X0018691Y0091257D01*
X0018930Y0091200D01*
X0019167Y0091138D01*
X0019403Y0091069D01*
X0019637Y0090995D01*
X0019869Y0090915D01*
X0020099Y0090830D01*
X0020327Y0090739D01*
X0020552Y0090642D01*
X0020776Y0090540D01*
X0020996Y0090432D01*
X0021214Y0090319D01*
X0021429Y0090201D01*
X0021641Y0090077D01*
X0021850Y0089949D01*
X0022056Y0089815D01*
X0022258Y0089676D01*
X0022457Y0089532D01*
X0022652Y0089383D01*
X0022844Y0089230D01*
X0023032Y0089072D01*
X0023216Y0088910D01*
X0023395Y0088742D01*
X0023571Y0088571D01*
X0023742Y0088395D01*
X0023910Y0088216D01*
X0024072Y0088032D01*
X0024230Y0087844D01*
X0024383Y0087652D01*
X0024532Y0087457D01*
X0024676Y0087258D01*
X0024815Y0087056D01*
X0024949Y0086850D01*
X0025077Y0086641D01*
X0025201Y0086429D01*
X0025319Y0086214D01*
X0025432Y0085996D01*
X0025540Y0085776D01*
X0025642Y0085552D01*
X0025739Y0085327D01*
X0025830Y0085099D01*
X0025915Y0084869D01*
X0025995Y0084637D01*
X0026069Y0084403D01*
X0026138Y0084167D01*
X0026200Y0083930D01*
X0026257Y0083691D01*
X0026308Y0083451D01*
X0026353Y0083210D01*
X0026392Y0082967D01*
X0026425Y0082724D01*
X0026452Y0082480D01*
X0026473Y0082236D01*
X0026488Y0081991D01*
X0026497Y0081745D01*
X0026500Y0081500D01*
X0026497Y0081255D01*
X0026488Y0081009D01*
X0026473Y0080764D01*
X0026452Y0080520D01*
X0026425Y0080276D01*
X0026392Y0080033D01*
X0026353Y0079790D01*
X0026308Y0079549D01*
X0026257Y0079309D01*
X0026200Y0079070D01*
X0026138Y0078833D01*
X0026069Y0078597D01*
X0025995Y0078363D01*
X0025915Y0078131D01*
X0025830Y0077901D01*
X0025739Y0077673D01*
X0025642Y0077448D01*
X0025540Y0077224D01*
X0025432Y0077004D01*
X0025319Y0076786D01*
X0025201Y0076571D01*
X0025077Y0076359D01*
X0024949Y0076150D01*
X0024815Y0075944D01*
X0024676Y0075742D01*
X0024532Y0075543D01*
X0024383Y0075348D01*
X0024230Y0075156D01*
X0024072Y0074968D01*
X0023910Y0074784D01*
X0023742Y0074605D01*
X0023571Y0074429D01*
X0023395Y0074258D01*
X0023216Y0074090D01*
X0023032Y0073928D01*
X0022844Y0073770D01*
X0022652Y0073617D01*
X0022457Y0073468D01*
X0022258Y0073324D01*
X0022056Y0073185D01*
X0021850Y0073051D01*
X0021641Y0072923D01*
X0021429Y0072799D01*
X0021214Y0072681D01*
X0020996Y0072568D01*
X0020776Y0072460D01*
X0020552Y0072358D01*
X0020327Y0072261D01*
X0020099Y0072170D01*
X0019869Y0072085D01*
X0019637Y0072005D01*
X0019403Y0071931D01*
X0019167Y0071862D01*
X0018930Y0071800D01*
X0018691Y0071743D01*
X0018451Y0071692D01*
X0018210Y0071647D01*
X0017967Y0071608D01*
X0017724Y0071575D01*
X0017480Y0071548D01*
X0017236Y0071527D01*
X0016991Y0071512D01*
X0016745Y0071503D01*
X0016500Y0071500D01*
X0016255Y0071503D01*
X0016009Y0071512D01*
X0015764Y0071527D01*
X0015520Y0071548D01*
X0015276Y0071575D01*
X0015033Y0071608D01*
X0014790Y0071647D01*
X0014549Y0071692D01*
X0014309Y0071743D01*
X0014070Y0071800D01*
X0013833Y0071862D01*
X0013597Y0071931D01*
X0013363Y0072005D01*
X0013131Y0072085D01*
X0012901Y0072170D01*
X0012673Y0072261D01*
X0012448Y0072358D01*
X0012224Y0072460D01*
X0012004Y0072568D01*
X0011786Y0072681D01*
X0011571Y0072799D01*
X0011359Y0072923D01*
X0011150Y0073051D01*
X0010944Y0073185D01*
X0010742Y0073324D01*
X0010543Y0073468D01*
X0010348Y0073617D01*
X0010156Y0073770D01*
X0009968Y0073928D01*
X0009784Y0074090D01*
X0009605Y0074258D01*
X0009429Y0074429D01*
X0009258Y0074605D01*
X0009090Y0074784D01*
X0008928Y0074968D01*
X0008770Y0075156D01*
X0008617Y0075348D01*
X0008468Y0075543D01*
X0008324Y0075742D01*
X0008185Y0075944D01*
X0008051Y0076150D01*
X0007923Y0076359D01*
X0007799Y0076571D01*
X0007681Y0076786D01*
X0007568Y0077004D01*
X0007460Y0077224D01*
X0007358Y0077448D01*
X0007261Y0077673D01*
X0007170Y0077901D01*
X0007085Y0078131D01*
X0007005Y0078363D01*
X0006931Y0078597D01*
X0006862Y0078833D01*
X0006800Y0079070D01*
X0006743Y0079309D01*
X0006692Y0079549D01*
X0006647Y0079790D01*
X0006608Y0080033D01*
X0006575Y0080276D01*
X0006548Y0080520D01*
X0006527Y0080764D01*
X0006512Y0081009D01*
X0006503Y0081255D01*
X0006500Y0081500D01*
D15*
X0118744Y0054217D02*
X0118746Y0054322D01*
X0118752Y0054427D01*
X0118762Y0054531D01*
X0118776Y0054635D01*
X0118794Y0054739D01*
X0118816Y0054841D01*
X0118841Y0054943D01*
X0118871Y0055044D01*
X0118904Y0055143D01*
X0118941Y0055241D01*
X0118982Y0055338D01*
X0119027Y0055433D01*
X0119075Y0055526D01*
X0119126Y0055618D01*
X0119182Y0055707D01*
X0119240Y0055794D01*
X0119302Y0055879D01*
X0119366Y0055962D01*
X0119434Y0056042D01*
X0119505Y0056119D01*
X0119579Y0056193D01*
X0119656Y0056265D01*
X0119735Y0056334D01*
X0119817Y0056399D01*
X0119901Y0056462D01*
X0119988Y0056521D01*
X0120077Y0056577D01*
X0120168Y0056630D01*
X0120261Y0056679D01*
X0120355Y0056724D01*
X0120451Y0056766D01*
X0120549Y0056804D01*
X0120648Y0056838D01*
X0120749Y0056869D01*
X0120850Y0056895D01*
X0120953Y0056918D01*
X0121056Y0056937D01*
X0121160Y0056952D01*
X0121264Y0056963D01*
X0121369Y0056970D01*
X0121474Y0056973D01*
X0121579Y0056972D01*
X0121684Y0056967D01*
X0121788Y0056958D01*
X0121892Y0056945D01*
X0121996Y0056928D01*
X0122099Y0056907D01*
X0122201Y0056882D01*
X0122302Y0056854D01*
X0122401Y0056821D01*
X0122500Y0056785D01*
X0122597Y0056745D01*
X0122692Y0056702D01*
X0122786Y0056654D01*
X0122878Y0056604D01*
X0122968Y0056550D01*
X0123056Y0056492D01*
X0123141Y0056431D01*
X0123224Y0056367D01*
X0123305Y0056300D01*
X0123383Y0056230D01*
X0123458Y0056156D01*
X0123530Y0056081D01*
X0123600Y0056002D01*
X0123666Y0055921D01*
X0123730Y0055837D01*
X0123790Y0055751D01*
X0123846Y0055663D01*
X0123900Y0055572D01*
X0123950Y0055480D01*
X0123996Y0055386D01*
X0124039Y0055290D01*
X0124078Y0055192D01*
X0124113Y0055094D01*
X0124144Y0054993D01*
X0124172Y0054892D01*
X0124196Y0054790D01*
X0124216Y0054687D01*
X0124232Y0054583D01*
X0124244Y0054479D01*
X0124252Y0054374D01*
X0124256Y0054269D01*
X0124256Y0054165D01*
X0124252Y0054060D01*
X0124244Y0053955D01*
X0124232Y0053851D01*
X0124216Y0053747D01*
X0124196Y0053644D01*
X0124172Y0053542D01*
X0124144Y0053441D01*
X0124113Y0053340D01*
X0124078Y0053242D01*
X0124039Y0053144D01*
X0123996Y0053048D01*
X0123950Y0052954D01*
X0123900Y0052862D01*
X0123846Y0052771D01*
X0123790Y0052683D01*
X0123730Y0052597D01*
X0123666Y0052513D01*
X0123600Y0052432D01*
X0123530Y0052353D01*
X0123458Y0052278D01*
X0123383Y0052204D01*
X0123305Y0052134D01*
X0123224Y0052067D01*
X0123141Y0052003D01*
X0123056Y0051942D01*
X0122968Y0051884D01*
X0122878Y0051830D01*
X0122786Y0051780D01*
X0122692Y0051732D01*
X0122597Y0051689D01*
X0122500Y0051649D01*
X0122401Y0051613D01*
X0122302Y0051580D01*
X0122201Y0051552D01*
X0122099Y0051527D01*
X0121996Y0051506D01*
X0121892Y0051489D01*
X0121788Y0051476D01*
X0121684Y0051467D01*
X0121579Y0051462D01*
X0121474Y0051461D01*
X0121369Y0051464D01*
X0121264Y0051471D01*
X0121160Y0051482D01*
X0121056Y0051497D01*
X0120953Y0051516D01*
X0120850Y0051539D01*
X0120749Y0051565D01*
X0120648Y0051596D01*
X0120549Y0051630D01*
X0120451Y0051668D01*
X0120355Y0051710D01*
X0120261Y0051755D01*
X0120168Y0051804D01*
X0120077Y0051857D01*
X0119988Y0051913D01*
X0119901Y0051972D01*
X0119817Y0052035D01*
X0119735Y0052100D01*
X0119656Y0052169D01*
X0119579Y0052241D01*
X0119505Y0052315D01*
X0119434Y0052392D01*
X0119366Y0052472D01*
X0119302Y0052555D01*
X0119240Y0052640D01*
X0119182Y0052727D01*
X0119126Y0052816D01*
X0119075Y0052908D01*
X0119027Y0053001D01*
X0118982Y0053096D01*
X0118941Y0053193D01*
X0118904Y0053291D01*
X0118871Y0053390D01*
X0118841Y0053491D01*
X0118816Y0053593D01*
X0118794Y0053695D01*
X0118776Y0053799D01*
X0118762Y0053903D01*
X0118752Y0054007D01*
X0118746Y0054112D01*
X0118744Y0054217D01*
X0118744Y0018783D02*
X0118746Y0018888D01*
X0118752Y0018993D01*
X0118762Y0019097D01*
X0118776Y0019201D01*
X0118794Y0019305D01*
X0118816Y0019407D01*
X0118841Y0019509D01*
X0118871Y0019610D01*
X0118904Y0019709D01*
X0118941Y0019807D01*
X0118982Y0019904D01*
X0119027Y0019999D01*
X0119075Y0020092D01*
X0119126Y0020184D01*
X0119182Y0020273D01*
X0119240Y0020360D01*
X0119302Y0020445D01*
X0119366Y0020528D01*
X0119434Y0020608D01*
X0119505Y0020685D01*
X0119579Y0020759D01*
X0119656Y0020831D01*
X0119735Y0020900D01*
X0119817Y0020965D01*
X0119901Y0021028D01*
X0119988Y0021087D01*
X0120077Y0021143D01*
X0120168Y0021196D01*
X0120261Y0021245D01*
X0120355Y0021290D01*
X0120451Y0021332D01*
X0120549Y0021370D01*
X0120648Y0021404D01*
X0120749Y0021435D01*
X0120850Y0021461D01*
X0120953Y0021484D01*
X0121056Y0021503D01*
X0121160Y0021518D01*
X0121264Y0021529D01*
X0121369Y0021536D01*
X0121474Y0021539D01*
X0121579Y0021538D01*
X0121684Y0021533D01*
X0121788Y0021524D01*
X0121892Y0021511D01*
X0121996Y0021494D01*
X0122099Y0021473D01*
X0122201Y0021448D01*
X0122302Y0021420D01*
X0122401Y0021387D01*
X0122500Y0021351D01*
X0122597Y0021311D01*
X0122692Y0021268D01*
X0122786Y0021220D01*
X0122878Y0021170D01*
X0122968Y0021116D01*
X0123056Y0021058D01*
X0123141Y0020997D01*
X0123224Y0020933D01*
X0123305Y0020866D01*
X0123383Y0020796D01*
X0123458Y0020722D01*
X0123530Y0020647D01*
X0123600Y0020568D01*
X0123666Y0020487D01*
X0123730Y0020403D01*
X0123790Y0020317D01*
X0123846Y0020229D01*
X0123900Y0020138D01*
X0123950Y0020046D01*
X0123996Y0019952D01*
X0124039Y0019856D01*
X0124078Y0019758D01*
X0124113Y0019660D01*
X0124144Y0019559D01*
X0124172Y0019458D01*
X0124196Y0019356D01*
X0124216Y0019253D01*
X0124232Y0019149D01*
X0124244Y0019045D01*
X0124252Y0018940D01*
X0124256Y0018835D01*
X0124256Y0018731D01*
X0124252Y0018626D01*
X0124244Y0018521D01*
X0124232Y0018417D01*
X0124216Y0018313D01*
X0124196Y0018210D01*
X0124172Y0018108D01*
X0124144Y0018007D01*
X0124113Y0017906D01*
X0124078Y0017808D01*
X0124039Y0017710D01*
X0123996Y0017614D01*
X0123950Y0017520D01*
X0123900Y0017428D01*
X0123846Y0017337D01*
X0123790Y0017249D01*
X0123730Y0017163D01*
X0123666Y0017079D01*
X0123600Y0016998D01*
X0123530Y0016919D01*
X0123458Y0016844D01*
X0123383Y0016770D01*
X0123305Y0016700D01*
X0123224Y0016633D01*
X0123141Y0016569D01*
X0123056Y0016508D01*
X0122968Y0016450D01*
X0122878Y0016396D01*
X0122786Y0016346D01*
X0122692Y0016298D01*
X0122597Y0016255D01*
X0122500Y0016215D01*
X0122401Y0016179D01*
X0122302Y0016146D01*
X0122201Y0016118D01*
X0122099Y0016093D01*
X0121996Y0016072D01*
X0121892Y0016055D01*
X0121788Y0016042D01*
X0121684Y0016033D01*
X0121579Y0016028D01*
X0121474Y0016027D01*
X0121369Y0016030D01*
X0121264Y0016037D01*
X0121160Y0016048D01*
X0121056Y0016063D01*
X0120953Y0016082D01*
X0120850Y0016105D01*
X0120749Y0016131D01*
X0120648Y0016162D01*
X0120549Y0016196D01*
X0120451Y0016234D01*
X0120355Y0016276D01*
X0120261Y0016321D01*
X0120168Y0016370D01*
X0120077Y0016423D01*
X0119988Y0016479D01*
X0119901Y0016538D01*
X0119817Y0016601D01*
X0119735Y0016666D01*
X0119656Y0016735D01*
X0119579Y0016807D01*
X0119505Y0016881D01*
X0119434Y0016958D01*
X0119366Y0017038D01*
X0119302Y0017121D01*
X0119240Y0017206D01*
X0119182Y0017293D01*
X0119126Y0017382D01*
X0119075Y0017474D01*
X0119027Y0017567D01*
X0118982Y0017662D01*
X0118941Y0017759D01*
X0118904Y0017857D01*
X0118871Y0017956D01*
X0118841Y0018057D01*
X0118816Y0018159D01*
X0118794Y0018261D01*
X0118776Y0018365D01*
X0118762Y0018469D01*
X0118752Y0018573D01*
X0118746Y0018678D01*
X0118744Y0018783D01*
D16*
X0079886Y0076382D02*
X0075437Y0076382D01*
X0079886Y0076382D02*
X0079886Y0086618D01*
X0075437Y0086618D01*
X0079886Y0081500D02*
X0086264Y0081500D01*
X0057563Y0076382D02*
X0053114Y0076382D01*
X0053114Y0086618D01*
X0057563Y0086618D01*
X0053114Y0081500D02*
X0046736Y0081500D01*
D17*
X0112250Y0089550D03*
X0112450Y0089500D03*
X0120300Y0086500D03*
X0132600Y0090200D03*
X0132600Y0090250D03*
X0132600Y0090300D03*
X0136250Y0090500D03*
X0136300Y0090400D03*
X0136300Y0090350D03*
D18*
X0132450Y0090650D03*
X0128100Y0090800D03*
X0128100Y0090850D03*
X0128050Y0088050D03*
X0128000Y0087900D03*
X0127950Y0087850D03*
X0127950Y0087800D03*
X0127900Y0087750D03*
X0132200Y0087500D03*
X0120300Y0086550D03*
X0113900Y0089100D03*
X0113700Y0089150D03*
D19*
X0120275Y0086600D03*
X0124925Y0088150D03*
X0124925Y0088200D03*
X0124975Y0088050D03*
X0124975Y0088000D03*
X0125025Y0087900D03*
X0125075Y0087850D03*
X0129325Y0088650D03*
X0129325Y0088700D03*
X0129275Y0088900D03*
X0129425Y0088400D03*
X0129275Y0089800D03*
X0129275Y0089850D03*
X0129275Y0089900D03*
X0129275Y0089950D03*
X0129325Y0090050D03*
X0129325Y0090100D03*
X0129325Y0090150D03*
X0129375Y0090200D03*
X0129375Y0090250D03*
X0129425Y0090300D03*
X0129425Y0090350D03*
X0129475Y0090400D03*
X0129475Y0090450D03*
X0129525Y0090500D03*
X0129575Y0090550D03*
X0132275Y0090850D03*
X0133625Y0090050D03*
X0133975Y0090900D03*
X0136275Y0088300D03*
X0136275Y0088250D03*
X0136275Y0088200D03*
X0136225Y0088050D03*
X0136225Y0088000D03*
X0136175Y0087950D03*
X0136175Y0087900D03*
X0136125Y0087850D03*
X0136075Y0087800D03*
X0136025Y0087750D03*
X0137825Y0087750D03*
X0137825Y0087800D03*
X0137825Y0087850D03*
X0137825Y0087900D03*
X0137825Y0087700D03*
X0137825Y0087650D03*
X0140675Y0088000D03*
X0140725Y0088050D03*
X0140825Y0088200D03*
X0140875Y0088300D03*
X0140925Y0088400D03*
X0140975Y0088500D03*
X0140975Y0088550D03*
X0141025Y0088700D03*
X0141025Y0088750D03*
X0141025Y0089700D03*
X0141025Y0089750D03*
X0140975Y0089900D03*
X0140975Y0089950D03*
X0140925Y0090050D03*
X0140875Y0090150D03*
X0140825Y0090250D03*
X0140775Y0090350D03*
X0140725Y0090400D03*
X0137825Y0090550D03*
X0137825Y0090600D03*
X0137825Y0090650D03*
X0137825Y0090700D03*
X0137825Y0090750D03*
X0137825Y0090800D03*
X0124875Y0090800D03*
X0124875Y0090750D03*
X0124875Y0090700D03*
D20*
X0124750Y0091000D03*
X0130150Y0090950D03*
X0133800Y0089850D03*
X0135850Y0090950D03*
X0136050Y0088700D03*
X0140050Y0087600D03*
X0130150Y0087650D03*
X0120200Y0086650D03*
X0115550Y0088600D03*
X0115400Y0088650D03*
D21*
X0116000Y0088450D03*
X0120150Y0086700D03*
X0130400Y0087550D03*
X0135850Y0088850D03*
X0135150Y0091200D03*
X0139850Y0087550D03*
D22*
X0135675Y0088950D03*
X0134225Y0089600D03*
X0134125Y0089650D03*
X0134625Y0087250D03*
X0131375Y0087250D03*
X0126475Y0087250D03*
X0120075Y0086750D03*
X0116275Y0088350D03*
D23*
X0116525Y0088250D03*
X0119975Y0086800D03*
X0118925Y0092100D03*
X0130675Y0087500D03*
X0134425Y0089500D03*
X0135375Y0089100D03*
D24*
X0134900Y0089300D03*
X0119900Y0086850D03*
D25*
X0119800Y0086900D03*
X0116750Y0088150D03*
D26*
X0118025Y0088600D03*
X0119675Y0086950D03*
X0131425Y0087300D03*
X0131225Y0091150D03*
X0138425Y0087300D03*
D27*
X0119575Y0087000D03*
X0116775Y0088100D03*
D28*
X0119450Y0087050D03*
D29*
X0119325Y0087100D03*
D30*
X0119200Y0087150D03*
X0134600Y0087350D03*
X0138600Y0087350D03*
X0135200Y0091100D03*
D31*
X0131275Y0087400D03*
X0119075Y0087200D03*
D32*
X0132425Y0087550D03*
X0133475Y0087600D03*
X0134625Y0087200D03*
D33*
X0131225Y0087450D03*
X0131275Y0091100D03*
X0135125Y0091050D03*
X0119825Y0091450D03*
X0118925Y0087250D03*
D34*
X0118800Y0087300D03*
X0119800Y0091350D03*
X0119800Y0091400D03*
X0126450Y0087400D03*
D35*
X0126475Y0087300D03*
D36*
X0134550Y0087300D03*
D37*
X0134725Y0087450D03*
X0138725Y0087400D03*
X0135075Y0091000D03*
X0119775Y0091300D03*
X0118675Y0087350D03*
D38*
X0126450Y0087350D03*
X0131350Y0087350D03*
D39*
X0138050Y0091150D03*
X0119750Y0091250D03*
X0118500Y0087400D03*
D40*
X0117900Y0088700D03*
X0134650Y0087400D03*
D41*
X0118375Y0087450D03*
X0118225Y0087500D03*
X0117875Y0088750D03*
D42*
X0126450Y0087450D03*
D43*
X0131275Y0091050D03*
X0138825Y0087450D03*
X0118075Y0087550D03*
X0117925Y0087600D03*
X0117775Y0087650D03*
D44*
X0118275Y0088400D03*
X0115725Y0088550D03*
X0125525Y0087500D03*
X0133875Y0089800D03*
X0135975Y0088750D03*
X0140025Y0090850D03*
D45*
X0140375Y0090700D03*
X0140525Y0090600D03*
X0137825Y0090850D03*
X0136175Y0088550D03*
X0136225Y0088450D03*
X0135825Y0087600D03*
X0133875Y0087500D03*
X0129775Y0087900D03*
X0129725Y0087950D03*
X0129675Y0088000D03*
X0129575Y0088150D03*
X0127475Y0087500D03*
X0125325Y0087600D03*
X0129925Y0090850D03*
X0134125Y0090950D03*
X0140375Y0087750D03*
X0140525Y0087850D03*
X0118325Y0088350D03*
X0115075Y0088750D03*
X0114925Y0088800D03*
D46*
X0115875Y0088500D03*
X0127775Y0091050D03*
X0127775Y0091100D03*
X0127775Y0091150D03*
X0135525Y0087500D03*
X0135925Y0088800D03*
D47*
X0138900Y0087500D03*
X0131200Y0091000D03*
X0117800Y0088800D03*
X0117000Y0087900D03*
X0116850Y0087950D03*
X0116700Y0088000D03*
X0116500Y0088050D03*
D48*
X0115250Y0088700D03*
X0124800Y0090950D03*
X0125400Y0087550D03*
X0129850Y0087850D03*
X0129900Y0087800D03*
X0133750Y0089900D03*
X0132200Y0090900D03*
X0130000Y0090900D03*
X0136150Y0088600D03*
X0137900Y0087550D03*
X0140300Y0087700D03*
X0140300Y0090750D03*
D49*
X0136025Y0090850D03*
X0133825Y0090800D03*
X0133775Y0090750D03*
X0133625Y0090600D03*
X0133575Y0090200D03*
X0133575Y0090150D03*
X0132325Y0090800D03*
X0127625Y0087550D03*
X0114425Y0088950D03*
D50*
X0113175Y0089300D03*
X0132525Y0090500D03*
X0133625Y0087550D03*
X0136175Y0090650D03*
D51*
X0137825Y0090900D03*
X0140175Y0090800D03*
X0136075Y0088650D03*
X0135725Y0087550D03*
X0140175Y0087650D03*
X0130075Y0087700D03*
X0129975Y0087750D03*
D52*
X0127700Y0087600D03*
X0128050Y0090950D03*
X0132350Y0090750D03*
X0133550Y0090450D03*
X0133550Y0090400D03*
X0133550Y0090350D03*
X0133550Y0090300D03*
X0133550Y0090250D03*
X0133600Y0090500D03*
X0133600Y0090550D03*
X0133650Y0090650D03*
X0133700Y0090700D03*
X0118400Y0088300D03*
X0114250Y0089000D03*
D53*
X0130250Y0087600D03*
X0133950Y0089750D03*
X0132100Y0090950D03*
D54*
X0133650Y0090000D03*
X0133700Y0089950D03*
X0135950Y0090900D03*
X0140450Y0090650D03*
X0140600Y0090550D03*
X0140650Y0090500D03*
X0140700Y0090450D03*
X0140800Y0090300D03*
X0140850Y0090200D03*
X0140900Y0090100D03*
X0140950Y0090000D03*
X0141000Y0089850D03*
X0141000Y0089800D03*
X0141050Y0089650D03*
X0141050Y0089600D03*
X0141050Y0089550D03*
X0141050Y0089500D03*
X0141050Y0089450D03*
X0141050Y0089400D03*
X0141050Y0089350D03*
X0141050Y0089300D03*
X0141050Y0089250D03*
X0141050Y0089200D03*
X0141050Y0089150D03*
X0141050Y0089100D03*
X0141050Y0089050D03*
X0141050Y0089000D03*
X0141050Y0088950D03*
X0141050Y0088900D03*
X0141050Y0088850D03*
X0141050Y0088800D03*
X0141000Y0088650D03*
X0141000Y0088600D03*
X0140950Y0088450D03*
X0140900Y0088350D03*
X0140850Y0088250D03*
X0140800Y0088150D03*
X0140750Y0088100D03*
X0140650Y0087950D03*
X0140600Y0087900D03*
X0140450Y0087800D03*
X0137850Y0087600D03*
X0136250Y0088350D03*
X0136250Y0088400D03*
X0136200Y0088500D03*
X0135950Y0087700D03*
X0135900Y0087650D03*
X0129650Y0088050D03*
X0129600Y0088100D03*
X0129550Y0088200D03*
X0129500Y0088250D03*
X0129500Y0088300D03*
X0129450Y0088350D03*
X0129400Y0088450D03*
X0129400Y0088500D03*
X0129350Y0088550D03*
X0129350Y0088600D03*
X0129300Y0088750D03*
X0129300Y0088800D03*
X0129300Y0088850D03*
X0129250Y0088950D03*
X0129250Y0089000D03*
X0129250Y0089050D03*
X0129250Y0089100D03*
X0129250Y0089150D03*
X0129250Y0089200D03*
X0129250Y0089250D03*
X0129250Y0089300D03*
X0129250Y0089350D03*
X0129250Y0089400D03*
X0129250Y0089450D03*
X0129250Y0089500D03*
X0129250Y0089550D03*
X0129250Y0089600D03*
X0129250Y0089650D03*
X0129250Y0089700D03*
X0129250Y0089750D03*
X0129300Y0090000D03*
X0129600Y0090600D03*
X0129650Y0090650D03*
X0129700Y0090700D03*
X0129750Y0090750D03*
X0129850Y0090800D03*
X0124850Y0090850D03*
X0124850Y0090900D03*
X0125100Y0087800D03*
X0125150Y0087750D03*
X0125200Y0087700D03*
X0125250Y0087650D03*
X0114750Y0088850D03*
D55*
X0114075Y0089050D03*
X0127775Y0087650D03*
X0127825Y0087700D03*
X0128075Y0090900D03*
X0132425Y0090700D03*
X0136075Y0090800D03*
D56*
X0117650Y0087700D03*
D57*
X0117475Y0087750D03*
X0117325Y0087800D03*
X0117175Y0087850D03*
D58*
X0114600Y0088900D03*
X0124900Y0088900D03*
X0124900Y0088950D03*
X0124900Y0089000D03*
X0124900Y0089050D03*
X0124900Y0089100D03*
X0124900Y0089150D03*
X0124900Y0089200D03*
X0124900Y0089250D03*
X0124900Y0089300D03*
X0124900Y0089350D03*
X0124900Y0089400D03*
X0124900Y0089450D03*
X0124900Y0089500D03*
X0124900Y0089550D03*
X0124900Y0089600D03*
X0124900Y0089650D03*
X0124900Y0089700D03*
X0124900Y0089750D03*
X0124900Y0089800D03*
X0124900Y0089850D03*
X0124900Y0089900D03*
X0124900Y0089950D03*
X0124900Y0090000D03*
X0124900Y0090050D03*
X0124900Y0090100D03*
X0124900Y0090150D03*
X0124900Y0090200D03*
X0124900Y0090250D03*
X0124900Y0090300D03*
X0124900Y0090350D03*
X0124900Y0090400D03*
X0124900Y0090450D03*
X0124900Y0090500D03*
X0124900Y0090550D03*
X0124900Y0090600D03*
X0124900Y0090650D03*
X0124900Y0088850D03*
X0124900Y0088800D03*
X0124900Y0088750D03*
X0124900Y0088700D03*
X0124900Y0088650D03*
X0124900Y0088600D03*
X0124900Y0088550D03*
X0124900Y0088500D03*
X0124900Y0088450D03*
X0124900Y0088400D03*
X0124900Y0088350D03*
X0124900Y0088300D03*
X0124900Y0088250D03*
X0124950Y0088100D03*
X0125000Y0087950D03*
X0128000Y0091000D03*
X0133600Y0090100D03*
X0133900Y0090850D03*
X0136250Y0088150D03*
X0136250Y0088100D03*
X0137800Y0088100D03*
X0137800Y0088150D03*
X0137800Y0088200D03*
X0137800Y0088250D03*
X0137800Y0088300D03*
X0137800Y0088350D03*
X0137800Y0088400D03*
X0137800Y0088450D03*
X0137800Y0088500D03*
X0137800Y0088550D03*
X0137800Y0088600D03*
X0137800Y0088650D03*
X0137800Y0088700D03*
X0137800Y0088750D03*
X0137800Y0088800D03*
X0137800Y0088850D03*
X0137800Y0088900D03*
X0137800Y0088950D03*
X0137800Y0089000D03*
X0137800Y0089050D03*
X0137800Y0089100D03*
X0137800Y0089150D03*
X0137800Y0089200D03*
X0137800Y0089250D03*
X0137800Y0089300D03*
X0137800Y0089350D03*
X0137800Y0089400D03*
X0137800Y0089450D03*
X0137800Y0089500D03*
X0137800Y0089550D03*
X0137800Y0089600D03*
X0137800Y0089650D03*
X0137800Y0089700D03*
X0137800Y0089750D03*
X0137800Y0089800D03*
X0137800Y0089850D03*
X0137800Y0089900D03*
X0137800Y0089950D03*
X0137800Y0090000D03*
X0137800Y0090050D03*
X0137800Y0090100D03*
X0137800Y0090150D03*
X0137800Y0090200D03*
X0137800Y0090250D03*
X0137800Y0090300D03*
X0137800Y0090350D03*
X0137800Y0090400D03*
X0137800Y0090450D03*
X0137800Y0090500D03*
X0137800Y0088050D03*
X0137800Y0088000D03*
X0137800Y0087950D03*
D59*
X0136125Y0090750D03*
X0132475Y0090600D03*
X0128125Y0090600D03*
X0128125Y0090550D03*
X0128125Y0090500D03*
X0128125Y0090450D03*
X0128125Y0090400D03*
X0128125Y0090350D03*
X0128125Y0090300D03*
X0128125Y0090250D03*
X0128125Y0090200D03*
X0128125Y0090150D03*
X0128125Y0090100D03*
X0128125Y0090050D03*
X0128125Y0090000D03*
X0128125Y0089950D03*
X0128125Y0089900D03*
X0128125Y0089850D03*
X0128125Y0089800D03*
X0128125Y0089750D03*
X0128125Y0089700D03*
X0128125Y0089650D03*
X0128125Y0089600D03*
X0128125Y0089550D03*
X0128125Y0089500D03*
X0128125Y0089450D03*
X0128125Y0089400D03*
X0128125Y0089350D03*
X0128125Y0089300D03*
X0128125Y0089250D03*
X0128125Y0089200D03*
X0128125Y0089150D03*
X0128125Y0089100D03*
X0128125Y0089050D03*
X0128125Y0089000D03*
X0128125Y0088950D03*
X0128125Y0088900D03*
X0128125Y0088850D03*
X0128125Y0088800D03*
X0128125Y0088750D03*
X0128125Y0088700D03*
X0128125Y0088650D03*
X0128125Y0088600D03*
X0128125Y0088550D03*
X0128125Y0088500D03*
X0128125Y0088450D03*
X0128125Y0088400D03*
X0128125Y0088350D03*
X0128125Y0088300D03*
X0128075Y0088250D03*
X0128075Y0088200D03*
X0128075Y0088150D03*
X0128075Y0088100D03*
X0128025Y0088000D03*
X0128025Y0087950D03*
X0128125Y0090650D03*
X0128125Y0090700D03*
X0128125Y0090750D03*
X0113525Y0089200D03*
D60*
X0116625Y0088200D03*
X0134675Y0089400D03*
X0134775Y0089350D03*
X0135025Y0089250D03*
X0135125Y0089200D03*
D61*
X0132625Y0090150D03*
X0118525Y0088200D03*
D62*
X0118450Y0088250D03*
X0113350Y0089250D03*
X0132500Y0090550D03*
X0136150Y0090700D03*
D63*
X0135475Y0089050D03*
X0134325Y0089550D03*
X0124525Y0091050D03*
X0124525Y0091100D03*
X0124525Y0091150D03*
X0118975Y0092250D03*
X0116425Y0088300D03*
D64*
X0116150Y0088400D03*
X0118200Y0088450D03*
X0131150Y0091200D03*
D65*
X0118950Y0092150D03*
X0118950Y0092200D03*
X0118150Y0088500D03*
D66*
X0118075Y0088550D03*
D67*
X0117975Y0088650D03*
D68*
X0117775Y0088850D03*
D69*
X0117725Y0088900D03*
D70*
X0134025Y0089700D03*
X0135775Y0088900D03*
X0139825Y0090900D03*
D71*
X0120650Y0090450D03*
X0117700Y0088950D03*
D72*
X0117650Y0089000D03*
X0117700Y0092350D03*
X0117700Y0092400D03*
X0117700Y0092450D03*
X0117700Y0092500D03*
X0117700Y0092550D03*
X0117700Y0092600D03*
X0117700Y0092650D03*
D73*
X0119000Y0092300D03*
X0135550Y0089000D03*
D74*
X0117625Y0089050D03*
D75*
X0117575Y0089100D03*
D76*
X0117575Y0089150D03*
D77*
X0134550Y0089450D03*
X0135250Y0089150D03*
D78*
X0117550Y0089200D03*
D79*
X0117550Y0089250D03*
D80*
X0117525Y0089300D03*
D81*
X0113000Y0089350D03*
X0112800Y0089400D03*
X0132550Y0090400D03*
X0132550Y0090450D03*
X0136200Y0090600D03*
D82*
X0117550Y0089350D03*
D83*
X0117550Y0089400D03*
X0117750Y0091650D03*
X0117750Y0091700D03*
X0117750Y0091750D03*
X0117750Y0091800D03*
D84*
X0112625Y0089450D03*
X0132575Y0090350D03*
X0136225Y0090550D03*
X0136275Y0090450D03*
D85*
X0117600Y0089450D03*
D86*
X0117625Y0089500D03*
D87*
X0117725Y0089550D03*
D88*
X0112050Y0089600D03*
X0111850Y0089650D03*
D89*
X0117850Y0089600D03*
D90*
X0118150Y0089650D03*
D91*
X0118050Y0089700D03*
D92*
X0117975Y0089750D03*
D93*
X0117875Y0089800D03*
D94*
X0117800Y0089850D03*
D95*
X0117700Y0089900D03*
D96*
X0117650Y0089950D03*
D97*
X0117550Y0090000D03*
D98*
X0117475Y0090050D03*
D99*
X0117375Y0090100D03*
D100*
X0117300Y0090150D03*
D101*
X0117250Y0090200D03*
D102*
X0120675Y0090500D03*
X0120675Y0090550D03*
D103*
X0120700Y0090600D03*
D104*
X0120725Y0090650D03*
D105*
X0117675Y0090700D03*
X0117675Y0090750D03*
X0117675Y0090800D03*
X0117675Y0090850D03*
X0117675Y0090900D03*
X0117675Y0090950D03*
X0117675Y0091000D03*
D106*
X0138825Y0090950D03*
D107*
X0138700Y0091000D03*
X0138250Y0091100D03*
D108*
X0138375Y0091050D03*
D109*
X0135200Y0091150D03*
D110*
X0117775Y0091500D03*
X0117775Y0091550D03*
X0117775Y0091600D03*
X0117775Y0091850D03*
M02*
